<svg width="30.000000" height="30.000000" viewBox="0 0 30 30" fill="none" xmlns="http://www.w3.org/2000/svg" xmlns:xlink="http://www.w3.org/1999/xlink">
    <defs/>
    <path id="矢量 304" d="M15 0C6.72 0 0 6.72 0 15C0 23.27 6.72 30 15 30C23.27 30 30 23.27 30 15C30 6.72 23.27 0 15 0ZM20.41 9.5C22.02 9.5 23.31 10.79 23.31 12.4C23.31 14 22.02 15.29 20.41 15.29C18.81 15.29 17.52 14 17.52 12.4C17.5 10.79 18.81 9.5 20.41 9.5ZM11.41 7.14C13.36 7.14 14.95 8.72 14.95 10.68C14.95 12.62 13.36 14.22 11.41 14.22C9.46 14.22 7.87 12.62 7.87 10.68C7.87 8.71 9.45 7.14 11.41 7.14ZM11.41 20.83L11.41 26.46C7.81 25.33 4.96 22.56 3.7 19.02C5.27 17.33 9.2 16.48 11.41 16.48C12.21 16.48 13.21 16.6 14.26 16.81C11.8 18.12 11.41 19.84 11.41 20.83ZM15 27C14.59 27 14.2 26.98 13.81 26.93L13.81 20.83C13.81 18.7 18.22 17.64 20.41 17.64C22.02 17.64 24.79 18.22 26.17 19.36C24.41 23.81 20.08 27 15 27Z" fill="#FFFFFF" fill-opacity="1.000000" fill-rule="evenodd"/>
</svg>
