<svg width="27.000000" height="25.350098" viewBox="0 0 27 25.3501" fill="none" xmlns="http://www.w3.org/2000/svg" xmlns:xlink="http://www.w3.org/1999/xlink">
    <defs/>
    <path id="矢量 43" d="M7.5 0.75L27 0.75L27 3.75L7.5 3.75L7.5 0.75ZM2.25 4.5C1.65 4.5 1.08 4.26 0.65 3.84C0.23 3.41 0 2.84 0 2.25C0 1.65 0.23 1.08 0.65 0.65C1.08 0.23 1.65 0 2.25 0C2.84 0 3.41 0.23 3.84 0.65C4.26 1.08 4.5 1.65 4.5 2.25C4.5 2.84 4.26 3.41 3.84 3.84C3.41 4.26 2.84 4.5 2.25 4.5ZM2.25 15C1.65 15 1.08 14.76 0.65 14.34C0.23 13.91 0 13.34 0 12.75C0 12.15 0.23 11.58 0.65 11.15C1.08 10.73 1.65 10.5 2.25 10.5C2.84 10.5 3.41 10.73 3.84 11.15C4.26 11.58 4.5 12.15 4.5 12.75C4.5 13.34 4.26 13.91 3.84 14.34C3.41 14.76 2.84 15 2.25 15ZM2.25 25.35C1.65 25.35 1.08 25.11 0.65 24.69C0.23 24.26 0 23.69 0 23.1C0 22.5 0.23 21.93 0.65 21.5C1.08 21.08 1.65 20.85 2.25 20.85C2.84 20.85 3.41 21.08 3.84 21.5C4.26 21.93 4.5 22.5 4.5 23.1C4.5 23.69 4.26 24.26 3.84 24.69C3.41 25.11 2.84 25.35 2.25 25.35ZM7.5 11.25L27 11.25L27 14.25L7.5 14.25L7.5 11.25ZM7.5 21.75L27 21.75L27 24.75L7.5 24.75L7.5 21.75Z" fill="#FFFFFF" fill-opacity="1.000000" fill-rule="evenodd"/>
</svg>
