<svg width="29.927979" height="29.926270" viewBox="0 0 29.928 29.9263" fill="none" xmlns="http://www.w3.org/2000/svg" xmlns:xlink="http://www.w3.org/1999/xlink">
    <defs/>
    <path id="矢量 69" d="M13.5 0L13.5 3.01C7.58 3.75 3 8.8 3 14.92C3 21.55 8.37 26.92 15 26.92C17.77 26.92 20.32 25.98 22.35 24.4L24.49 26.54C21.9 28.65 18.6 29.92 15 29.92C6.71 29.92 0 23.21 0 14.92C0 7.14 5.92 0.75 13.5 0L13.5 0ZM29.92 16.42C29.62 19.44 28.43 22.19 26.61 24.41L24.48 22.28C25.77 20.62 26.63 18.61 26.9 16.42L29.92 16.42L29.92 16.42ZM16.5 0C23.58 0.7 29.22 6.34 29.92 13.42L26.9 13.42C26.23 7.99 21.93 3.69 16.5 3.01L16.5 0L16.5 0Z" fill="#FFFFFF" fill-opacity="1.000000" fill-rule="evenodd"/>
</svg>
