<svg width="40.000000" height="36.000000" viewBox="0 0 40 36" fill="none" xmlns="http://www.w3.org/2000/svg" xmlns:xlink="http://www.w3.org/1999/xlink">
    <defs>
        <linearGradient x1="0.000004" y1="36.000011" x2="40.000000" y2="0.000008" id="paint_linear_341_4144_0" gradientUnits="userSpaceOnUse">
            <stop stop-color="#2FD65C"/>
            <stop offset="1.000000" stop-color="#20C1C7"/>
        </linearGradient>
    </defs>
    <path id="矢量 129" d="M20.82 4L38 4C38.53 4 39.03 4.21 39.41 4.58C39.78 4.96 40 5.46 40 6L40 34C40 34.53 39.78 35.03 39.41 35.41C39.03 35.78 38.53 36 38 36L2 36C1.46 36 0.96 35.78 0.58 35.41C0.21 35.03 0 34.53 0 34L0 2C0 1.46 0.21 0.96 0.58 0.58C0.96 0.21 1.46 0 2 0L16.82 0L20.82 4ZM4 4L4 32L36 32L36 8L19.17 8L15.17 4L4 4ZM22 20L28 20L20 28L12 20L18 20L18 12L22 12L22 20Z" fill="url(#paint_linear_341_4144_0)" fill-opacity="1.000000" fill-rule="evenodd"/>
</svg>
