<svg width="40.000000" height="40.000000" viewBox="0 0 40 40" fill="none" xmlns="http://www.w3.org/2000/svg" xmlns:xlink="http://www.w3.org/1999/xlink">
	<desc>
			Created with Pixso.
	</desc>
	<defs>
		<clipPath id="clip23_372">
			<rect id="clipboard-line" width="40.000000" height="40.000000" fill="white" fill-opacity="0"/>
		</clipPath>
		<linearGradient x1="5.000000" y1="36.666710" x2="35.000004" y2="3.333376" id="paint_linear_23_373_0" gradientUnits="userSpaceOnUse">
			<stop stop-color="#2FD65C"/>
			<stop offset="1.000000" stop-color="#20C1C7"/>
		</linearGradient>
	</defs>
	<rect id="clipboard-line" width="40.000000" height="40.000000" fill="#FFFFFF" fill-opacity="0"/>
	<g clip-path="url(#clip23_372)">
		<path id="矢量 11" d="M11.66 6.66L11.66 3.33L28.33 3.33L28.33 6.66L33.34 6.66C34.25 6.66 35 7.4 35 8.32L35 35.01C34.99 35.45 34.82 35.87 34.51 36.18C34.2 36.49 33.78 36.66 33.34 36.66L6.65 36.66C6.21 36.66 5.79 36.49 5.48 36.18C5.17 35.87 5 35.45 5 35.01L5 8.32C5 7.4 5.74 6.66 6.65 6.66L11.66 6.66ZM11.66 10L8.33 10L8.33 33.33L31.66 33.33L31.66 10L28.33 10L28.33 13.33L11.66 13.33L11.66 10ZM15 6.66L15 10L25 10L25 6.66L15 6.66Z" fill="url(#paint_linear_23_373_0)" fill-opacity="1.000000" fill-rule="evenodd"/>
		<path id="矢量 11" d="M11.66 3.33L28.33 3.33L28.33 6.66L33.34 6.66C34.25 6.66 35 7.4 35 8.32L35 35.01C34.99 35.45 34.82 35.87 34.51 36.18C34.2 36.49 33.78 36.66 33.34 36.66L6.65 36.66C6.21 36.66 5.79 36.49 5.48 36.18C5.17 35.87 5 35.45 5 35.01L5 8.32C5 7.4 5.74 6.66 6.65 6.66L11.66 6.66L11.66 3.33ZM8.33 10L8.33 33.33L31.66 33.33L31.66 10L28.33 10L28.33 13.33L11.66 13.33L11.66 10L8.33 10ZM15 10L25 10L25 6.66L15 6.66L15 10Z" stroke="#232323" stroke-opacity="1.000000" stroke-width="1.000000"/>
	</g>
</svg>
