<svg width="35.000000" height="38.000000" viewBox="0 0 35 38" fill="none" xmlns="http://www.w3.org/2000/svg" xmlns:xlink="http://www.w3.org/1999/xlink">
    <defs>
        <linearGradient x1="-0.000004" y1="38.000008" x2="35.000004" y2="0.000011" id="paint_linear_341_4103_0" gradientUnits="userSpaceOnUse">
            <stop stop-color="#2FD65C"/>
            <stop offset="1.000000" stop-color="#20C1C7"/>
        </linearGradient>
    </defs>
    <path id="矢量 69" d="M23.33 3.8L3.88 3.8L3.88 34.2L31.11 34.2L31.11 11.4L23.33 11.4L23.33 3.8ZM0 1.88C0 0.84 0.86 0 1.94 0L25.27 0L35 9.5L35 36.08C35 36.33 34.95 36.58 34.85 36.81C34.76 37.04 34.61 37.25 34.44 37.43C34.26 37.61 34.04 37.75 33.81 37.85C33.57 37.94 33.32 37.99 33.06 38L1.93 38C1.42 37.99 0.93 37.79 0.57 37.44C0.2 37.09 0 36.61 0 36.11L0 1.88Z" fill="url(#paint_linear_341_4103_0)" fill-opacity="1.000000" fill-rule="evenodd"/>
</svg>
