<svg width="40.000000" height="40.000000" viewBox="0 0 40 40" fill="none" xmlns="http://www.w3.org/2000/svg" xmlns:xlink="http://www.w3.org/1999/xlink">
    <defs>
        <clipPath id="clip341_4119">
            <rect id="file-excel-line" width="40.000000" height="40.000000" fill="white" fill-opacity="0"/>
        </clipPath>
        <linearGradient x1="2.000000" y1="39.000004" x2="37.000008" y2="1.000008" id="paint_linear_341_4120_0" gradientUnits="userSpaceOnUse">
            <stop stop-color="#2FD65C"/>
            <stop offset="1.000000" stop-color="#20C1C7"/>
        </linearGradient>
    </defs>
    <rect id="file-excel-line" width="40.000000" height="40.000000" fill="#FFFFFF" fill-opacity="0"/>
    <g clip-path="url(#clip341_4119)">
        <path id="矢量 49" d="M21.83 20L27.27 27.6L22.61 27.6L19.5 23.25L16.38 27.6L11.72 27.6L17.16 20L11.72 12.4L16.38 12.4L19.5 16.74L22.61 12.4L25.33 12.4L25.33 4.8L5.88 4.8L5.88 35.2L33.11 35.2L33.11 12.4L27.27 12.4L21.83 20ZM2 2.88C2 1.84 2.86 1 3.94 1L27.27 1L37 10.5L37 37.08C37 37.33 36.95 37.58 36.85 37.81C36.76 38.04 36.61 38.25 36.44 38.43C36.26 38.61 36.04 38.75 35.81 38.85C35.57 38.94 35.32 38.99 35.06 39L3.93 39C3.42 38.99 2.93 38.79 2.57 38.44C2.2 38.09 2 37.61 2 37.11L2 2.88Z" fill="url(#paint_linear_341_4120_0)" fill-opacity="1.000000" fill-rule="evenodd"/>
    </g>
</svg>
