<svg width="35.000000" height="38.000000" viewBox="0 0 35 38" fill="none" xmlns="http://www.w3.org/2000/svg" xmlns:xlink="http://www.w3.org/1999/xlink">
    <defs>
        <linearGradient x1="0.000000" y1="38.000004" x2="35.000008" y2="0.000008" id="paint_linear_341_4112_0" gradientUnits="userSpaceOnUse">
            <stop stop-color="#2FD65C"/>
            <stop offset="1.000000" stop-color="#20C1C7"/>
        </linearGradient>
    </defs>
    <path id="矢量 105" d="M23.33 3.8L3.88 3.8L3.88 34.2L31.11 34.2L31.11 11.4L23.33 11.4L23.33 3.8ZM0 1.88C0 0.84 0.86 0 1.94 0L25.27 0L35 9.5L35 36.08C35 36.33 34.95 36.58 34.85 36.81C34.76 37.04 34.61 37.25 34.44 37.43C34.26 37.61 34.04 37.75 33.81 37.85C33.57 37.94 33.32 37.99 33.06 38L1.93 38C1.42 37.99 0.93 37.79 0.57 37.44C0.2 37.09 0 36.61 0 36.11L0 1.88ZM17.5 18.04C16.21 18.04 14.97 17.54 14.06 16.65C13.15 15.76 12.63 14.55 12.63 13.3C12.63 12.04 13.15 10.83 14.06 9.94C14.97 9.05 16.21 8.55 17.5 8.55C18.78 8.55 20.02 9.05 20.93 9.94C21.84 10.83 22.36 12.04 22.36 13.3C22.36 14.55 21.84 15.76 20.93 16.65C20.02 17.54 18.78 18.04 17.5 18.04L17.5 18.04ZM8.8 28.5C9.03 26.4 10.05 24.47 11.66 23.06C13.26 21.66 15.34 20.88 17.5 20.88C19.65 20.88 21.73 21.66 23.33 23.06C24.94 24.47 25.96 26.4 26.19 28.5L8.8 28.5Z" fill="url(#paint_linear_341_4112_0)" fill-opacity="1.000000" fill-rule="evenodd"/>
</svg>
