<svg width="30.951294" height="30.951294" viewBox="0 0 30.9513 30.9513" fill="none" xmlns="http://www.w3.org/2000/svg" xmlns:xlink="http://www.w3.org/1999/xlink">
	<desc>
			Created with Pixso.
	</desc>
	<defs>
		<linearGradient x1="0.500011" y1="30.451328" x2="30.451340" y2="0.500000" id="paint_linear_23_379_0" gradientUnits="userSpaceOnUse">
			<stop stop-color="#2FD65C"/>
			<stop offset="1.000000" stop-color="#20C1C7"/>
		</linearGradient>
	</defs>
	<path id="矢量 119" d="M17 6.88L24.06 13.95L7.56 30.45L0.5 30.45L0.5 23.37L17 6.87L17 6.88ZM19.35 4.52L22.89 0.98C23.2 0.67 23.62 0.5 24.06 0.5C24.51 0.5 24.93 0.67 25.24 0.98L29.96 5.7C30.27 6.01 30.45 6.43 30.45 6.88C30.45 7.32 30.27 7.74 29.96 8.05L26.42 11.59L19.35 4.52Z" fill="url(#paint_linear_23_379_0)" fill-opacity="1.000000" fill-rule="evenodd"/>
	<path id="矢量 119" d="M24.06 13.95L7.56 30.45L0.5 30.45L0.5 23.37L17 6.87L17 6.88L24.06 13.95ZM22.89 0.98C23.2 0.67 23.62 0.5 24.06 0.5C24.51 0.5 24.93 0.67 25.24 0.98L29.96 5.7C30.27 6.01 30.45 6.43 30.45 6.88C30.45 7.32 30.27 7.74 29.96 8.05L26.42 11.59L19.35 4.52L22.89 0.98Z" stroke="#232323" stroke-opacity="1.000000" stroke-width="1.000000"/>
</svg>
