<svg width="36.000000" height="36.000000" viewBox="0 0 36 36" fill="none" xmlns="http://www.w3.org/2000/svg" xmlns:xlink="http://www.w3.org/1999/xlink">
	<desc>
			Created with Pixso.
	</desc>
	<defs>
		<clipPath id="clip6_1759">
			<rect id="creative-commons-by-line" width="36.000000" height="36.000000" fill="white" fill-opacity="0"/>
		</clipPath>
	</defs>
	<rect id="creative-commons-by-line" width="36.000000" height="36.000000" fill="#FFFFFF" fill-opacity="0"/>
	<g clip-path="url(#clip6_1759)">
		<path id="矢量 53" d="M19 3C27.83 3 35 10.16 35 19C35 27.83 27.83 35 19 35C10.16 35 3 27.83 3 19C3 10.16 10.16 3 19 3ZM19 6.2C15.6 6.2 12.34 7.54 9.94 9.94C7.54 12.34 6.19 15.6 6.19 19C6.19 22.39 7.54 25.65 9.94 28.05C12.34 30.45 15.6 31.8 19 31.8C22.39 31.8 25.65 30.45 28.05 28.05C30.45 25.65 31.8 22.39 31.8 19C31.8 15.6 30.45 12.34 28.05 9.94C25.65 7.54 22.39 6.2 19 6.2L19 6.2ZM22.2 15.8C22.62 15.8 23.03 15.96 23.33 16.26C23.63 16.56 23.8 16.97 23.8 17.4L23.8 23.8L21.39 23.8L21.39 30.2L16.6 30.2L16.6 23.8L14.2 23.8L14.2 17.4C14.2 16.97 14.36 16.56 14.66 16.26C14.96 15.96 15.37 15.8 15.8 15.8L22.2 15.8ZM19 7.79C19.84 7.79 20.66 8.13 21.26 8.73C21.86 9.33 22.2 10.15 22.2 11C22.2 11.84 21.86 12.66 21.26 13.26C20.66 13.86 19.84 14.2 19 14.2C18.15 14.2 17.33 13.86 16.73 13.26C16.13 12.66 15.8 11.84 15.8 11C15.8 10.15 16.13 9.33 16.73 8.73C17.33 8.13 18.15 7.79 19 7.79Z" fill="#FFFFFF" fill-opacity="1.000000" fill-rule="evenodd"/>
		<path id="矢量 53" d="M35 19C35 27.83 27.83 35 19 35C10.16 35 3 27.83 3 19C3 10.16 10.16 3 19 3C27.83 3 35 10.16 35 19ZM9.94 9.94C7.54 12.34 6.19 15.6 6.19 19C6.19 22.39 7.54 25.65 9.94 28.05C12.34 30.45 15.6 31.8 19 31.8C22.39 31.8 25.65 30.45 28.05 28.05C30.45 25.65 31.8 22.39 31.8 19C31.8 15.6 30.45 12.34 28.05 9.94C25.65 7.54 22.39 6.2 19 6.2L19 6.2C15.6 6.2 12.34 7.54 9.94 9.94ZM23.33 16.26C23.63 16.56 23.8 16.97 23.8 17.4L23.8 23.8L21.39 23.8L21.39 30.2L16.6 30.2L16.6 23.8L14.2 23.8L14.2 17.4C14.2 16.97 14.36 16.56 14.66 16.26C14.96 15.96 15.37 15.8 15.8 15.8L22.2 15.8C22.62 15.8 23.03 15.96 23.33 16.26ZM21.26 8.73C21.86 9.33 22.2 10.15 22.2 11C22.2 11.84 21.86 12.66 21.26 13.26C20.66 13.86 19.84 14.2 19 14.2C18.15 14.2 17.33 13.86 16.73 13.26C16.13 12.66 15.8 11.84 15.8 11C15.8 10.15 16.13 9.33 16.73 8.73C17.33 8.13 18.15 7.79 19 7.79C19.84 7.79 20.66 8.13 21.26 8.73Z" stroke="#232323" stroke-opacity="1.000000" stroke-width="1.000000"/>
	</g>
</svg>
