<svg width="36.000000" height="36.000000" viewBox="0 0 31 28" fill="none" xmlns="http://www.w3.org/2000/svg" xmlns:xlink="http://www.w3.org/1999/xlink">
    <defs/>
    <path id="矢量 99" d="M2 0.5L29 0.5C29.39 0.5 29.77 0.65 30.06 0.93C30.34 1.22 30.5 1.6 30.5 2L30.5 26C30.5 26.39 30.34 26.77 30.06 27.06C29.77 27.34 29.39 27.5 29 27.5L2 27.5C1.6 27.5 1.22 27.34 0.93 27.06C0.65 26.77 0.5 26.39 0.5 26L0.5 2C0.5 1.6 0.65 1.22 0.93 0.93C1.22 0.65 1.6 0.5 2 0.5L2 0.5ZM27.5 6.85L15.6 17.5L3.5 6.82L3.5 24.5L27.5 24.5L27.5 6.85ZM4.26 3.5L15.59 13.49L26.75 3.5L4.26 3.5Z" fill="#FFFFFF" fill-opacity="1.000000" fill-rule="evenodd"/>
    <path id="矢量 99" d="M29 0.5C29.39 0.5 29.77 0.65 30.06 0.93C30.34 1.22 30.5 1.6 30.5 2L30.5 26C30.5 26.39 30.34 26.77 30.06 27.06C29.77 27.34 29.39 27.5 29 27.5L2 27.5C1.6 27.5 1.22 27.34 0.93 27.06C0.65 26.77 0.5 26.39 0.5 26L0.5 2C0.5 1.6 0.65 1.22 0.93 0.93C1.22 0.65 1.6 0.5 2 0.5L2 0.5L29 0.5ZM15.6 17.5L3.5 6.82L3.5 24.5L27.5 24.5L27.5 6.85L15.6 17.5ZM15.59 13.49L26.75 3.5L4.26 3.5L15.59 13.49Z" stroke="#232323" stroke-opacity="1.000000" stroke-width="1.000000"/>
</svg>
