<svg width="22.564102" height="22.000000" viewBox="0 0 22.5641 22" fill="none" xmlns="http://www.w3.org/2000/svg" xmlns:xlink="http://www.w3.org/1999/xlink">
    <defs/>
    <path id="Vector 6" d="M22.56 11C22.56 17.06 17.5 22 11.28 22C5.05 22 0 17.06 0 11C0 4.93 5.05 0 11.28 0C17.5 0 22.56 4.93 22.56 11Z" fill="#EE6820" fill-opacity="1.000000" fill-rule="evenodd"/>
    <path id="Vector 6" d="M21.37 11C21.37 16.43 16.85 20.84 11.28 20.84C5.71 20.84 1.18 16.43 1.18 11C1.18 5.56 5.71 1.15 11.28 1.15C16.85 1.15 21.37 5.56 21.37 11Z" fill="#303030" fill-opacity="1.000000" fill-rule="evenodd"/>
    <path id="Vector 6" d="M10.44 15.46C10.44 15.94 10.66 16.34 11.37 16.34C12.1 16.34 12.31 15.94 12.31 15.46C12.31 14.95 12.1 14.55 11.37 14.55C10.66 14.55 10.44 14.95 10.44 15.46ZM10.73 13.01L12.01 13.01L12.01 6.48L10.73 6.48L10.73 13.01Z" fill="#EF6B25" fill-opacity="1.000000" fill-rule="nonzero"/>
</svg>
