<svg width="36.000000" height="36.000000" viewBox="0 0 36 36" fill="none" xmlns="http://www.w3.org/2000/svg" xmlns:xlink="http://www.w3.org/1999/xlink">
	<desc>
			Created with Pixso.
	</desc>
	<defs>
		<clipPath id="clip6_1753">
			<rect id="file-line" width="36.000000" height="36.000000" fill="white" fill-opacity="0"/>
		</clipPath>
	</defs>
	<rect id="file-line" width="36.000000" height="36.000000" fill="#FFFFFF" fill-opacity="0"/>
	<g clip-path="url(#clip6_1753)">
		<path id="矢量 61" d="M13.5 3L13.5 3L29.99 3C30.82 3 31.5 3.68 31.5 4.48L31.5 31.51C31.49 31.9 31.34 32.28 31.06 32.56C30.78 32.84 30.4 33 30.01 33L5.98 33C5.79 32.99 5.59 32.95 5.41 32.88C5.23 32.8 5.07 32.69 4.93 32.55C4.79 32.41 4.68 32.24 4.61 32.06C4.53 31.88 4.49 31.68 4.5 31.48L4.5 12L13.5 3ZM8.74 12L13.5 12L13.5 7.24L8.74 12ZM16.5 6L16.5 13.5C16.5 13.89 16.34 14.27 16.06 14.56C15.77 14.84 15.39 15 15 15L7.5 15L7.5 30L28.5 30L28.5 6L16.5 6Z" fill="#FFFFFF" fill-opacity="1.000000" fill-rule="evenodd"/>
		<path id="矢量 61" d="M13.5 3L29.99 3C30.82 3 31.5 3.68 31.5 4.48L31.5 31.51C31.49 31.9 31.34 32.28 31.06 32.56C30.78 32.84 30.4 33 30.01 33L5.98 33C5.79 32.99 5.59 32.95 5.41 32.88C5.23 32.8 5.07 32.69 4.93 32.55C4.79 32.41 4.68 32.24 4.61 32.06C4.53 31.88 4.49 31.68 4.5 31.48L4.5 12L13.5 3L13.5 3ZM13.5 12L13.5 7.24L8.74 12L13.5 12ZM16.5 13.5C16.5 13.89 16.34 14.27 16.06 14.56C15.77 14.84 15.39 15 15 15L7.5 15L7.5 30L28.5 30L28.5 6L16.5 6L16.5 13.5Z" stroke="#232323" stroke-opacity="1.000000" stroke-width="1.000000"/>
	</g>
</svg>
