<svg width="24.000000" height="24.000000" viewBox="0 0 24 24" fill="none" xmlns="http://www.w3.org/2000/svg" xmlns:xlink="http://www.w3.org/1999/xlink">
	<desc>
			Created with Pixso.
	</desc>
	<defs>
		<clipPath id="clip26_848">
			<rect id="filter_filters_funnel_list_sort_sorting_tool_icon_123213" width="24.000000" height="24.000000" transform="translate(-0.089355 -0.382690)" fill="white" fill-opacity="0"/>
		</clipPath>
	</defs>
	<g clip-path="url(#clip26_848)">
		<path id="path" d="M9.66 20.61C9.51 20.61 9.38 20.58 9.26 20.5C9.02 20.35 8.91 20.14 8.91 19.86L8.91 12.65L3.12 6.22C2.47 5.51 2.15 4.67 2.16 3.71L2.16 3.36C2.16 2.86 2.41 2.61 2.91 2.61L20.91 2.61C21.41 2.61 21.66 2.86 21.66 3.36L21.66 3.71C21.66 4.67 21.34 5.51 20.7 6.22L14.91 12.65L14.91 16.68C14.91 17.61 14.49 18.28 13.66 18.7L9.99 20.53C9.89 20.58 9.77 20.61 9.66 20.61ZM3.69 4.11C3.77 4.53 3.95 4.9 4.23 5.21L10.23 11.86C10.35 12.01 10.41 12.17 10.41 12.36L10.41 18.65L12.99 17.36C13.27 17.22 13.41 16.99 13.41 16.68L13.41 12.36C13.41 12.17 13.47 12 13.6 11.86L19.6 5.21C19.89 4.9 20.08 4.53 20.16 4.11L3.69 4.11Z" fill="#FFFFFF" fill-opacity="0.960000" fill-rule="nonzero"/>
		<rect id="rect" x="-0.089355" y="-0.382690" width="24.000000" height="24.000000" fill="#000000" fill-opacity="0"/>
	</g>
</svg>
