<svg width="24.000000" height="24.410255" viewBox="0 0 24 24.4103" fill="none" xmlns="http://www.w3.org/2000/svg" xmlns:xlink="http://www.w3.org/1999/xlink">
    <defs/>
    <path id="path" d="M9.23 24.41C9.05 24.41 8.89 24.36 8.74 24.25C8.45 24.05 8.3 23.76 8.3 23.39L8.3 13.6L1.18 4.89C0.39 3.92 -0.01 2.78 0 1.48L0 1.01C0 0.33 0.3 0 0.92 0L23.07 0C23.69 0 24 0.33 24 1.01L24 1.48C24 2.78 23.6 3.92 22.81 4.89L15.69 13.6L15.69 19.08C15.69 20.34 15.18 21.25 14.16 21.81L9.64 24.29C9.51 24.37 9.37 24.4 9.23 24.41ZM1.89 2.03C1.98 2.6 2.2 3.1 2.55 3.52L9.94 12.54C10.09 12.73 10.16 12.96 10.15 13.22L10.15 21.74L13.33 19.99C13.67 19.8 13.84 19.08 13.84 19.08L13.84 13.22C13.84 12.96 14.08 12.54 14.08 12.54L21.47 3.52C21.82 3.1 22.05 2.6 22.15 2.03L1.89 2.03Z" fill="#FFFFFF" fill-opacity="0.960000" fill-rule="nonzero"/>
</svg>
