<svg width="46.400391" height="41.899902" viewBox="0 0 46.4004 41.8999" fill="none" xmlns="http://www.w3.org/2000/svg" xmlns:xlink="http://www.w3.org/1999/xlink">
    <defs/>
    <path id="矢量 139" d="M5.2 5.19L5.2 36.7L41.2 36.7L41.2 9.69L22.26 9.69L17.76 5.19L5.2 5.19ZM24.13 5.19L43.45 5.19C44.04 5.19 44.61 5.43 45.04 5.85C45.46 6.28 45.7 6.85 45.7 7.44L45.7 38.95C45.7 39.54 45.46 40.11 45.04 40.54C44.61 40.96 44.04 41.2 43.45 41.2L2.95 41.2C2.35 41.2 1.78 40.96 1.35 40.54C0.93 40.11 0.7 39.54 0.7 38.95L0.7 2.94C0.7 2.35 0.93 1.78 1.35 1.35C1.78 0.93 2.35 0.69 2.95 0.69L19.63 0.69L24.13 5.19Z" fill="#FFFFFF" fill-opacity="0.960000" fill-rule="evenodd"/>
    <path id="矢量 139" d="M5.2 36.7L41.2 36.7L41.2 9.69L22.26 9.69L17.76 5.19L5.2 5.19L5.2 36.7ZM43.45 5.19C44.04 5.19 44.61 5.43 45.04 5.85C45.46 6.28 45.7 6.85 45.7 7.44L45.7 38.95C45.7 39.54 45.46 40.11 45.04 40.54C44.61 40.96 44.04 41.2 43.45 41.2L2.95 41.2C2.35 41.2 1.78 40.96 1.35 40.54C0.93 40.11 0.7 39.54 0.7 38.95L0.7 2.94C0.7 2.35 0.93 1.78 1.35 1.35C1.78 0.93 2.35 0.69 2.95 0.69L19.63 0.69L24.13 5.19L43.45 5.19Z" stroke="#232323" stroke-opacity="1.000000" stroke-width="1.400000"/>
</svg>
