<svg width="36.000000" height="36.000000" viewBox="0 0 36 36" fill="none" xmlns="http://www.w3.org/2000/svg" xmlns:xlink="http://www.w3.org/1999/xlink">
	<defs>
		<clipPath id="clip6_1763">
			<rect id="home-line" width="36.000000" height="36.000000" fill="white" fill-opacity="0"/>
		</clipPath>
	</defs>
	<rect id="home-line" width="36.000000" height="36.000000" fill="#FFFFFF" fill-opacity="0"/>
	<g clip-path="url(#clip6_1763)">
		<path id="矢量 32" d="M31.5 30C31.5 30.39 31.34 30.77 31.06 31.06C30.77 31.34 30.39 31.5 30 31.5L6 31.5C5.6 31.5 5.22 31.34 4.93 31.06C4.65 30.77 4.5 30.39 4.5 30L4.5 14.23C4.49 14 4.55 13.78 4.65 13.57C4.75 13.37 4.89 13.19 5.07 13.05L17.07 3.71C17.34 3.51 17.66 3.4 18 3.4C18.33 3.4 18.65 3.51 18.92 3.71L30.92 13.05C31.1 13.19 31.24 13.37 31.34 13.57C31.44 13.78 31.5 14 31.5 14.23L31.5 30L31.5 30ZM28.5 28.5L28.5 14.96L18 6.8L7.5 14.96L7.5 28.5L28.5 28.5Z" fill="#FFFFFF" fill-opacity="1.000000" fill-rule="evenodd"/>
		<path id="矢量 32" d="M31.06 31.06C30.77 31.34 30.39 31.5 30 31.5L6 31.5C5.6 31.5 5.22 31.34 4.93 31.06C4.65 30.77 4.5 30.39 4.5 30L4.5 14.23C4.49 14 4.55 13.78 4.65 13.57C4.75 13.37 4.89 13.19 5.07 13.05L17.07 3.71C17.34 3.51 17.66 3.4 18 3.4C18.33 3.4 18.65 3.51 18.92 3.71L30.92 13.05C31.1 13.19 31.24 13.37 31.34 13.57C31.44 13.78 31.5 14 31.5 14.23L31.5 30L31.5 30C31.5 30.39 31.34 30.77 31.06 31.06ZM28.5 14.96L18 6.8L7.5 14.96L7.5 28.5L28.5 28.5L28.5 14.96Z" stroke="#232323" stroke-opacity="1.000000" stroke-width="1.000000"/>
	</g>
</svg>
