<svg width="28.199951" height="29.299316" viewBox="0 0 28.2 29.2993" fill="none" xmlns="http://www.w3.org/2000/svg" xmlns:xlink="http://www.w3.org/1999/xlink">
    <defs/>
    <path id="矢量 22" d="M27.6 27.19C27.6 27.59 27.44 27.97 27.16 28.25C26.87 28.54 26.49 28.69 26.1 28.69L2.09 28.69C1.7 28.69 1.32 28.54 1.03 28.25C0.75 27.97 0.59 27.59 0.59 27.19L0.59 11.43C0.59 11.2 0.65 10.98 0.75 10.77C0.85 10.56 0.99 10.38 1.17 10.24L13.17 0.91C13.44 0.71 13.76 0.6 14.1 0.6C14.43 0.6 14.75 0.71 15.02 0.91L27.02 10.24C27.2 10.38 27.34 10.56 27.44 10.77C27.54 10.98 27.6 11.2 27.6 11.43L27.6 27.19L27.6 27.19ZM24.6 25.69L24.6 12.16L14.1 4L3.59 12.16L3.59 25.69L24.6 25.69ZM6.59 19.69L21.6 19.69L21.6 22.69L6.59 22.69L6.59 19.69Z" fill="#FFFFFF" fill-opacity="1.000000" fill-rule="evenodd"/>
    <path id="矢量 22" d="M27.16 28.25C26.87 28.54 26.49 28.69 26.1 28.69L2.09 28.69C1.7 28.69 1.32 28.54 1.03 28.25C0.75 27.97 0.59 27.59 0.59 27.19L0.59 11.43C0.59 11.2 0.65 10.98 0.75 10.77C0.85 10.56 0.99 10.38 1.17 10.24L13.17 0.91C13.44 0.71 13.76 0.6 14.1 0.6C14.43 0.6 14.75 0.71 15.02 0.91L27.02 10.24C27.2 10.38 27.34 10.56 27.44 10.77C27.54 10.98 27.6 11.2 27.6 11.43L27.6 27.19L27.6 27.19C27.6 27.59 27.44 27.97 27.16 28.25ZM24.6 12.16L14.1 4L3.59 12.16L3.59 25.69L24.6 25.69L24.6 12.16ZM21.6 19.69L21.6 22.69L6.59 22.69L6.59 19.69L21.6 19.69Z" stroke="#232323" stroke-opacity="1.000000" stroke-width="1.200000"/>
</svg>
