<svg width="276.000000" height="259.916504" viewBox="0 0 276 259.917" fill="none" xmlns="http://www.w3.org/2000/svg" xmlns:xlink="http://www.w3.org/1999/xlink">
    <defs>
        <clipPath id="clip197_1624">
            <rect id="somePic" width="276.000000" height="259.916534" fill="white" fill-opacity="0"/>
        </clipPath>
    </defs>
    <g clip-path="url(#clip197_1624)">
        <mask id="mask197_1626" mask-type="alpha" maskUnits="userSpaceOnUse" x="0.000000" y="0.000000" width="276.000000" height="259.916504">
            <rect id="rect" width="276.000000" height="259.916534" fill="#000000" fill-opacity="1.000000"/>
        </mask>
        <g mask="url(#mask197_1626)">
            <path id="path" d="M147.61 36.5C156.77 28.97 169.66 26.08 179.75 31.96C168.39 37.45 159.14 47.23 153.64 59.58C151.54 64.35 149.64 69.9 145.3 72.11C142.6 73.48 139.41 73.21 136.61 72.11C133.81 71 131.32 69.12 128.86 67.25L128.13 67.16C132.5 55.45 138.46 44.03 147.61 36.5Z" fill="#F0F0F0" fill-opacity="1.000000" fill-rule="nonzero"/>
            <path id="path" d="M179.66 32.21C170.25 32.54 161.16 36.16 153.7 42.57C152.07 43.91 150.64 45.54 149.47 47.38C148.38 49.22 147.75 51.34 147.64 53.54C147.51 55.59 147.59 57.7 147.01 59.68C146.7 60.68 146.2 61.61 145.55 62.38C144.9 63.16 144.11 63.78 143.22 64.19C141.05 65.28 138.66 65.44 136.32 65.51C133.71 65.58 131 65.61 128.64 66.97C128.35 67.14 128.14 66.63 128.42 66.47C132.54 64.09 137.36 65.64 141.69 64.23C143.71 63.57 145.56 62.23 146.38 59.98C147.08 58.02 147.01 55.84 147.13 53.77C147.2 51.62 147.74 49.53 148.71 47.67C149.8 45.76 151.17 44.08 152.76 42.69C156.3 39.49 160.27 36.94 164.53 35.12C169.37 33.01 174.51 31.84 179.71 31.65C180.03 31.64 179.98 32.2 179.66 32.21Z" fill="#FFFFFF" fill-opacity="1.000000" fill-rule="nonzero"/>
            <path id="path" d="M155.99 40.35C155.2 38.81 154.92 37 155.21 35.26C155.5 33.51 156.34 31.93 157.57 30.81C157.82 30.59 158.15 31.01 157.9 31.24C156.75 32.28 155.97 33.75 155.7 35.37C155.43 37 155.7 38.68 156.45 40.11C156.61 40.42 156.15 40.66 155.99 40.35Z" fill="#FFFFFF" fill-opacity="1.000000" fill-rule="nonzero"/>
            <path id="path" d="M147.59 52.49C150.73 53.47 154.09 53.1 156.99 51.44C157.28 51.28 157.49 51.78 157.2 51.95C154.18 53.66 150.69 54.05 147.42 53.02C147.11 52.92 147.28 52.4 147.59 52.49Z" fill="#FFFFFF" fill-opacity="1.000000" fill-rule="nonzero"/>
            <path id="path" d="M169.35 33.75C169.55 34.41 169.89 35.02 170.34 35.5C170.8 35.98 171.36 36.33 171.97 36.52C172.28 36.61 172.11 37.14 171.8 37.04C171.13 36.84 170.51 36.45 170.01 35.92C169.5 35.38 169.12 34.72 168.9 33.99C168.87 33.92 168.87 33.84 168.89 33.77C168.91 33.7 168.96 33.65 169.02 33.61C169.08 33.58 169.14 33.58 169.21 33.6C169.27 33.63 169.32 33.68 169.35 33.75Z" fill="#FFFFFF" fill-opacity="1.000000" fill-rule="nonzero"/>
            <path id="path" d="M187.74 73.94C187.55 73.89 187.35 73.83 187.15 73.79C184.51 73.1 181.82 72.65 179.11 72.45C178.9 72.43 178.68 72.41 178.47 72.4C171.94 71.99 165.4 72.94 159.18 75.19C156.7 76.09 154.29 77.2 151.97 78.5C148.76 80.3 145.4 82.54 141.95 83.05C141.59 83.1 141.23 83.14 140.86 83.14L128.08 68.16C128.06 68.11 128.05 68.07 128.03 68.02L127.5 67.44C127.61 67.37 127.73 67.29 127.85 67.21C127.92 67.17 127.99 67.13 128.05 67.08C128.1 67.05 128.14 67.03 128.18 67C128.22 66.97 128.31 66.92 128.34 66.89C129.02 66.46 129.7 66.04 130.39 65.61C135.62 62.41 141.14 59.67 146.86 57.95C147.03 57.9 147.21 57.84 147.38 57.8C149.96 57.04 152.6 56.51 155.25 56.23C156.71 56.08 158.17 56.01 159.63 56.03C163.41 56.07 167.15 56.78 170.73 58.12C177.86 60.8 184.15 65.98 187.49 73.37C187.58 73.56 187.66 73.75 187.74 73.94Z" fill="#F0F0F0" fill-opacity="1.000000" fill-rule="nonzero"/>
            <path id="path" d="M187.54 74.09C179.85 68.04 170.63 64.84 161.21 64.95C159.18 64.93 157.16 65.27 155.23 65.96C153.37 66.69 151.71 67.97 150.44 69.65C149.23 71.2 148.14 72.94 146.62 74.13C145.82 74.72 144.93 75.13 143.99 75.31C143.05 75.49 142.08 75.45 141.15 75.19C138.83 74.61 136.83 73.13 134.93 71.61C132.81 69.92 130.63 68.13 128 67.64C127.69 67.58 127.79 67.03 128.11 67.09C132.68 67.95 135.69 72.42 139.91 74.19C141.88 75.02 144.08 75.19 145.95 73.95C147.57 72.85 148.69 71.06 149.91 69.49C151.13 67.82 152.69 66.51 154.47 65.68C156.37 64.89 158.37 64.46 160.39 64.42C164.95 64.24 169.5 64.86 173.89 66.26C178.9 67.82 183.63 70.33 187.88 73.67C188.14 73.88 187.8 74.29 187.54 74.09Z" fill="#FFFFFF" fill-opacity="1.000000" fill-rule="nonzero"/>
            <path id="path" d="M164.24 64.72C164.44 62.95 165.19 61.33 166.37 60.13C167.55 58.92 169.07 58.23 170.66 58.16C170.98 58.15 171.02 58.71 170.69 58.72C169.21 58.78 167.79 59.43 166.7 60.55C165.61 61.67 164.91 63.19 164.73 64.83C164.7 65.19 164.2 65.07 164.24 64.72Z" fill="#FFFFFF" fill-opacity="1.000000" fill-rule="nonzero"/>
            <path id="path" d="M150.96 68.78C152.94 71.67 155.83 73.61 159.04 74.24C159.36 74.3 159.25 74.85 158.94 74.79C155.59 74.13 152.6 72.09 150.54 69.09C150.35 68.8 150.77 68.49 150.96 68.78Z" fill="#FFFFFF" fill-opacity="1.000000" fill-rule="nonzero"/>
            <path id="path" d="M178.48 68.4C178.27 69.06 178.22 69.77 178.32 70.47C178.43 71.16 178.68 71.81 179.07 72.37C179.27 72.65 178.85 72.95 178.65 72.67C178.22 72.06 177.94 71.34 177.83 70.57C177.71 69.81 177.77 69.02 177.98 68.28C178 68.21 178.04 68.15 178.09 68.11C178.15 68.07 178.22 68.06 178.28 68.07C178.35 68.08 178.4 68.13 178.44 68.19C178.48 68.25 178.49 68.33 178.48 68.4Z" fill="#FFFFFF" fill-opacity="1.000000" fill-rule="nonzero"/>
            <path id="path" d="M145.2 47.71L144.21 47.71L144.21 17.49C144.21 15.19 143.8 12.91 143.01 10.79C142.22 8.67 141.06 6.74 139.6 5.12C138.14 3.49 136.41 2.21 134.51 1.33C132.6 0.45 130.56 0 128.5 0L70.99 0C68.93 0 66.88 0.45 64.98 1.33C63.07 2.21 61.34 3.49 59.88 5.12C58.42 6.74 57.27 8.67 56.48 10.79C55.69 12.91 55.28 15.19 55.28 17.49L55.28 183.28C55.28 187.92 56.94 192.37 59.88 195.65C62.83 198.93 66.82 200.77 70.99 200.77L128.5 200.77C132.66 200.77 136.66 198.93 139.6 195.65C142.55 192.37 144.21 187.92 144.21 183.28L144.21 69.22L145.2 69.22L145.2 47.71Z" fill="#3F3D56" fill-opacity="1.000000" fill-rule="nonzero"/>
            <path id="path" d="M129.13 4.55L121.62 4.55C121.97 5.49 122.1 6.51 122.01 7.52C121.91 8.53 121.6 9.51 121.09 10.35C120.58 11.2 119.89 11.89 119.08 12.37C118.28 12.84 117.38 13.09 116.46 13.09L83.52 13.09C82.61 13.09 81.71 12.84 80.9 12.37C80.09 11.89 79.4 11.2 78.89 10.35C78.38 9.51 78.07 8.53 77.97 7.52C77.88 6.51 78.01 5.49 78.36 4.55L71.35 4.55C68.24 4.55 65.25 5.92 63.05 8.37C60.85 10.82 59.62 14.14 59.62 17.61L59.62 183.16C59.62 184.87 59.92 186.57 60.51 188.15C61.1 189.74 61.96 191.18 63.05 192.39C64.14 193.61 65.43 194.57 66.86 195.22C68.28 195.88 69.81 196.22 71.35 196.22L129.13 196.22C130.67 196.22 132.2 195.88 133.62 195.22C135.04 194.57 136.34 193.61 137.42 192.39C138.51 191.18 139.38 189.74 139.97 188.15C140.56 186.57 140.86 184.87 140.86 183.16L140.86 17.61C140.86 14.14 139.63 10.82 137.42 8.37C135.23 5.92 132.24 4.55 129.13 4.55Z" fill="#FFFFFF" fill-opacity="1.000000" fill-rule="nonzero"/>
            <path id="path" d="M101.35 143.04C97.09 143.04 92.88 142.11 88.95 140.3C85.02 138.49 81.44 135.83 78.43 132.48C75.43 129.13 73.04 125.16 71.41 120.78C69.79 116.4 68.95 111.71 68.96 106.97C68.95 100.32 70.6 93.79 73.72 88.12C76.84 82.45 81.31 77.85 86.64 74.83C90.5 72.65 94.71 71.34 99.03 71C103.35 70.65 107.69 71.27 111.79 72.82C119.06 75.58 125.21 81.12 129.14 88.45C133.08 95.78 134.56 104.43 133.3 112.86C132.05 121.29 128.15 128.95 122.3 134.48C116.45 140 109.02 143.04 101.35 143.04ZM101.35 72.32C96.43 72.3 91.59 73.6 87.22 76.09C83.39 78.26 80.01 81.29 77.29 84.98C74.57 88.67 72.56 92.95 71.39 97.54C70.23 102.14 69.93 106.95 70.51 111.69C71.09 116.42 72.55 120.97 74.79 125.04C77.02 129.12 79.99 132.63 83.51 135.37C87.03 138.11 91.01 140 95.22 140.95C99.42 141.89 103.76 141.85 107.95 140.83C112.14 139.82 116.1 137.85 119.58 135.05C121.26 133.7 122.81 132.17 124.22 130.47C128.32 125.52 131.05 119.35 132.05 112.71C133.05 106.06 132.3 99.24 129.87 93.07C127.44 86.89 123.45 81.64 118.39 77.96C113.32 74.28 107.4 72.32 101.35 72.32Z" fill="#F0F0F0" fill-opacity="1.000000" fill-rule="nonzero"/>
            <path id="path" d="M31.16 74.96C32.05 75.09 32.9 75.43 33.66 75.96C34.42 76.49 35.06 77.2 35.55 78.04C36.03 78.88 36.35 79.82 36.47 80.81C36.59 81.8 36.52 82.81 36.25 83.76L47.01 93.74L43.16 102.5L28.14 88.17C26.73 87.57 25.57 86.41 24.88 84.92C24.18 83.42 24.01 81.7 24.38 80.07C24.75 78.45 25.65 77.03 26.9 76.08C28.15 75.14 29.66 74.74 31.16 74.96Z" fill="#FFB6B6" fill-opacity="1.000000" fill-rule="nonzero"/>
            <path id="path" d="M131.67 116.59C131.46 114.01 130.57 109.36 129.81 107.64C127.48 100.86 112.44 95.29 110.42 94.57L109.91 88.23L89.01 85.72L86.36 93.83L78.87 96.96C78.36 97.17 77.9 97.51 77.52 97.94C77.14 98.37 76.85 98.89 76.68 99.47L69.95 101.63L63.32 103.77L40.26 85.68L39.18 86.47L31.9 91.76L30.78 92.57L60.61 122.54L71.69 119.64L80.02 117.46L80.74 120.68L78.89 131.97C84.23 137.92 91.29 141.55 98.82 142.22C106.34 142.89 113.83 140.55 119.95 135.63L124.68 130.95C127.98 126.98 130.42 122.21 131.8 117.03L131.67 116.59Z" fill="#E4E4E4" fill-opacity="1.000000" fill-rule="nonzero"/>
            <path id="path" d="M106.03 80.54C113.92 77.63 118.19 68.15 115.58 59.37C112.97 50.59 104.46 45.82 96.57 48.73C88.68 51.64 84.4 61.12 87.02 69.9C89.63 78.68 98.14 83.45 106.03 80.54Z" fill="#FFB6B6" fill-opacity="1.000000" fill-rule="nonzero"/>
            <path id="path" d="M89.41 45.54C90.88 43.21 93.07 41.58 95.56 40.98C98.03 40.41 100.59 40.94 102.71 42.44C105.02 41.4 107.51 40.71 109.96 41.06C112.4 41.41 114.8 42.93 115.93 45.44C116.17 46.09 116.46 46.71 116.79 47.31C117.79 48.79 119.64 48.98 121.28 49.05C120.45 49.59 119.63 50.12 118.8 50.66C119.62 51.09 120.45 51.52 121.27 51.94C120.15 52.42 119.03 52.9 117.9 53.38C120.52 55.93 121.15 60.48 120.16 64.3C119.22 67.91 117.08 70.95 114.68 73.55C114.21 71.61 114.73 69.5 115.07 67.49C115.43 65.37 115.49 62.88 114.15 61.38C113.25 60.37 111.93 60.07 110.68 59.82C104.4 58.58 98.05 57.74 91.68 57.31C90.82 57.18 89.95 57.28 89.14 57.6C87.59 58.36 86.97 60.47 86.52 62.34C86.3 59.06 86.48 55.76 87.03 52.53C87.46 50.06 88.12 47.59 89.41 45.54Z" fill="#2F2E41" fill-opacity="1.000000" fill-rule="nonzero"/>
            <path id="path" d="M108.97 160.03L91.19 160.03C90.57 160.03 89.98 159.76 89.54 159.27C89.1 158.78 88.86 158.12 88.86 157.44C88.86 156.75 89.1 156.09 89.54 155.6C89.98 155.12 90.57 154.84 91.19 154.84L108.97 154.84C109.59 154.84 110.18 155.12 110.62 155.6C111.05 156.09 111.3 156.75 111.3 157.44C111.3 158.12 111.05 158.78 110.62 159.27C110.18 159.76 109.59 160.03 108.97 160.03Z" fill="#03D263" fill-opacity="1.000000" fill-rule="nonzero"/>
            <path id="path" d="M50.61 21.27L1.7 21.27C1.25 21.27 0.81 21.07 0.49 20.71C0.18 20.36 0 19.88 0 19.37C0 18.87 0.18 18.39 0.49 18.04C0.81 17.68 1.25 17.48 1.7 17.48L50.61 17.48C51.06 17.48 51.5 17.68 51.82 18.04C52.14 18.39 52.31 18.87 52.31 19.37C52.31 19.88 52.14 20.36 51.82 20.71C51.5 21.07 51.06 21.27 50.61 21.27Z" fill="#03D263" fill-opacity="1.000000" fill-rule="nonzero"/>
            <path id="path" d="M78.86 33.37L1.7 33.37C1.25 33.37 0.81 33.17 0.49 32.81C0.17 32.46 0 31.98 0 31.47C0 30.97 0.17 30.49 0.49 30.13C0.81 29.78 1.25 29.58 1.7 29.58L78.86 29.58C79.31 29.58 79.74 29.78 80.06 30.13C80.38 30.49 80.56 30.97 80.56 31.47C80.56 31.98 80.38 32.46 80.06 32.81C79.74 33.17 79.31 33.37 78.86 33.37Z" fill="#03D263" fill-opacity="1.000000" fill-rule="nonzero"/>
            <path id="path" d="M64.03 44.77L1.7 44.77C1.25 44.77 0.81 44.57 0.49 44.21C0.17 43.86 0 43.37 0 42.87C0 42.37 0.17 41.89 0.49 41.53C0.81 41.18 1.25 40.98 1.7 40.98L64.03 40.98C64.48 40.98 64.91 41.18 65.23 41.53C65.55 41.89 65.73 42.37 65.73 42.87C65.73 43.37 65.55 43.86 65.23 44.21C64.91 44.57 64.48 44.77 64.03 44.77Z" fill="#CACACA" fill-opacity="1.000000" fill-rule="nonzero"/>
            <path id="path" d="M36.85 56.12L1.7 56.12C1.25 56.12 0.81 55.92 0.49 55.57C0.17 55.21 0 54.73 0 54.23C0 53.73 0.17 53.25 0.49 52.89C0.81 52.53 1.25 52.33 1.7 52.33L36.85 52.33C37.3 52.33 37.73 52.53 38.05 52.89C38.37 53.25 38.55 53.73 38.55 54.23C38.55 54.73 38.37 55.21 38.05 55.57C37.73 55.92 37.3 56.12 36.85 56.12Z" fill="#CACACA" fill-opacity="1.000000" fill-rule="nonzero"/>
            <path id="path" d="M56.26 67.48L1.7 67.48C1.25 67.48 0.81 67.28 0.5 66.92C0.18 66.57 0 66.09 0 65.58C0 65.08 0.18 64.6 0.5 64.25C0.81 63.89 1.25 63.69 1.7 63.69L56.26 63.69C56.71 63.69 57.15 63.89 57.46 64.25C57.78 64.6 57.96 65.08 57.96 65.58C57.96 66.09 57.78 66.57 57.46 66.92C57.15 67.28 56.71 67.48 56.26 67.48Z" fill="#CACACA" fill-opacity="1.000000" fill-rule="nonzero"/>
            <path id="path" d="M210.04 252.8L205.66 252.8L203.57 233.97L210.05 233.97L210.04 252.8Z" fill="#9F616A" fill-opacity="1.000000" fill-rule="nonzero"/>
            <path id="path" d="M211.77 259.56L195.03 259.56L195.03 259.32C195.03 257.4 195.72 255.55 196.94 254.19C198.16 252.83 199.82 252.07 201.55 252.07L204.6 249.48L210.31 252.07L211.77 252.07L211.77 259.56Z" fill="#2F2E41" fill-opacity="1.000000" fill-rule="nonzero"/>
            <path id="path" d="M207.49 164.31L205.56 138.06L204.04 128.21L212.54 126.12L215.36 139.6L212.91 165.04C213.4 165.71 213.7 166.54 213.78 167.41C213.85 168.28 213.68 169.15 213.3 169.92C212.93 170.68 212.35 171.31 211.65 171.7C210.95 172.1 210.16 172.26 209.39 172.15C208.61 172.05 207.87 171.69 207.28 171.12C206.69 170.54 206.26 169.79 206.06 168.94C205.86 168.1 205.88 167.21 206.14 166.38C206.39 165.56 206.86 164.83 207.49 164.31Z" fill="#9F616A" fill-opacity="1.000000" fill-rule="nonzero"/>
            <path id="path" d="M186.76 252.8L182.37 252.8L180.29 233.97L186.76 233.97L186.76 252.8Z" fill="#9F616A" fill-opacity="1.000000" fill-rule="nonzero"/>
            <path id="path" d="M179.74 170.26L177.8 174C177.8 174 175.66 174.65 176.36 182.4C177.06 190.16 177.09 236.08 180.46 241.73L181.08 246.58L187.46 247.26L187.62 242.96L195.22 183.14C195.22 183.14 199.7 241.86 203.41 243.3L204.75 248.19L210.6 248.19L210.25 242.43L210.63 169.65L179.74 170.26Z" fill="#2F2E41" fill-opacity="1.000000" fill-rule="nonzero"/>
            <path id="path" d="M177.6 173.72L177.47 173.68C181.48 156.97 180.32 135.34 177.49 112.11L187.73 101.57L196.62 101.57L205.44 107.9C211.14 111.08 212.43 117.79 212.44 117.86L208.96 131.48L211.59 170.72C210.74 173.13 208.45 172.87 205.8 172.48C203.17 172.08 193.45 175.7 190.47 175.7C184.65 175.7 178.02 173.84 177.6 173.72Z" fill="#E4E4E4" fill-opacity="1.000000" fill-rule="nonzero"/>
            <path id="path" d="M203.59 113.19L207.41 111.34L212.44 118.21L216.52 140.23L202.55 137.87L203.59 113.19Z" fill="#E4E4E4" fill-opacity="1.000000" fill-rule="nonzero"/>
            <path id="path" d="M144.84 153.79L162.3 136.02L168.37 128.66L175.06 134.87L167.2 145.61L147.63 159C147.46 159.86 147.05 160.63 146.48 161.22C145.9 161.82 145.18 162.21 144.41 162.34C143.63 162.48 142.84 162.35 142.13 161.98C141.42 161.61 140.82 161.01 140.42 160.26C140.02 159.51 139.83 158.64 139.87 157.77C139.92 156.9 140.19 156.06 140.67 155.37C141.14 154.67 141.79 154.15 142.53 153.87C143.28 153.59 144.08 153.56 144.84 153.79Z" fill="#9F616A" fill-opacity="1.000000" fill-rule="nonzero"/>
            <path id="path" d="M161.92 136.22L166.75 129.22C166.79 129.12 170.81 119.14 174.29 114.8C177.85 110.35 180.66 112.63 180.69 112.65L180.95 129.14L167.56 146.96L161.92 136.22Z" fill="#E4E4E4" fill-opacity="1.000000" fill-rule="nonzero"/>
            <path id="path" d="M199.34 91.73C200.06 86.79 197.04 82.12 192.6 81.32C188.16 80.52 183.97 83.88 183.25 88.83C182.53 93.77 185.54 98.43 189.99 99.24C194.43 100.04 198.62 96.68 199.34 91.73Z" fill="#9F616A" fill-opacity="1.000000" fill-rule="nonzero"/>
            <path id="path" d="M183.84 88.93C183.84 88.93 183.78 85.74 183.41 84.33C183.05 82.92 182.33 81.71 182.69 81.71C183.05 81.71 183.23 80.7 183.23 80.7C183.23 80.7 183.6 80.5 183.78 80.7C183.96 80.9 184.14 79.29 184.14 79.29C184.14 79.29 184.32 78.68 184.5 79.09C184.68 79.49 184.68 79.29 184.86 78.68C185.04 78.08 185.95 77.67 185.95 77.67C185.95 77.67 189.39 77.88 189.94 77.07C190.48 76.26 196.64 76.87 197.91 77.88C199.17 78.88 204.79 82.51 203.88 85.54C202.98 88.56 200.37 95.53 199.72 96.23C198.68 97.33 197.97 97.73 193.08 98.81C192.12 99.03 187.24 95.55 187.24 94.94C187.24 94.34 187.83 92.42 186.88 92.16C185.45 91.76 185.29 93.77 184.93 93.17C184.57 92.56 183.84 88.93 183.84 88.93Z" fill="#2F2E41" fill-opacity="1.000000" fill-rule="nonzero"/>
            <path id="path" d="M188.48 259.56L171.74 259.56L171.74 259.32C171.74 257.4 172.43 255.55 173.65 254.19C174.87 252.83 176.53 252.07 178.26 252.07L181.31 249.48L187.02 252.07L188.48 252.07L188.48 259.56Z" fill="#2F2E41" fill-opacity="1.000000" fill-rule="nonzero"/>
            <path id="path" d="M275.49 259.91L1.4 259.91C1.27 259.91 1.14 259.85 1.05 259.75C0.95 259.64 0.9 259.5 0.9 259.35C0.9 259.2 0.95 259.06 1.05 258.95C1.14 258.85 1.27 258.79 1.4 258.79L275.49 258.79C275.63 258.79 275.75 258.85 275.85 258.95C275.94 259.06 276 259.2 276 259.35C276 259.5 275.94 259.64 275.85 259.75C275.75 259.85 275.63 259.91 275.49 259.91Z" fill="#CACACA" fill-opacity="1.000000" fill-rule="nonzero"/>
        </g>
    </g>
</svg>
