<svg width="655.000000" height="422.000000" viewBox="0 0 655 422" fill="none" xmlns="http://www.w3.org/2000/svg" xmlns:xlink="http://www.w3.org/1999/xlink">
    <defs>
        <clipPath id="clip399_826">
            <rect id="21586054_Na_Nov_26" width="655.000000" height="422.000000" fill="white" fill-opacity="0"/>
        </clipPath>
        <linearGradient x1="127.941399" y1="375.623718" x2="216.423370" y2="301.631287" id="paint_linear_399_841_0" gradientUnits="userSpaceOnUse">
            <stop stop-color="#2FD65C"/>
            <stop offset="1.000000" stop-color="#20C1C7"/>
        </linearGradient>
        <linearGradient x1="325.781372" y1="319.968842" x2="340.433472" y2="305.666382" id="paint_linear_399_855_0" gradientUnits="userSpaceOnUse">
            <stop stop-color="#2FD65C"/>
            <stop offset="1.000000" stop-color="#20C1C7"/>
        </linearGradient>
        <linearGradient x1="224.427734" y1="330.653076" x2="261.656555" y2="251.891617" id="paint_linear_399_861_0" gradientUnits="userSpaceOnUse">
            <stop stop-color="#2FD65C"/>
            <stop offset="1.000000" stop-color="#20C1C7"/>
        </linearGradient>
        <linearGradient x1="160.244125" y1="349.128723" x2="259.072205" y2="251.888336" id="paint_linear_399_863_0" gradientUnits="userSpaceOnUse">
            <stop stop-color="#F5AE4C"/>
            <stop offset="1.000000" stop-color="#FA8CAE"/>
        </linearGradient>
        <linearGradient x1="472.397491" y1="375.309082" x2="550.349976" y2="288.169678" id="paint_linear_399_869_0" gradientUnits="userSpaceOnUse">
            <stop stop-color="#2FD65C"/>
            <stop offset="1.000000" stop-color="#20C1C7"/>
        </linearGradient>
        <linearGradient x1="492.629883" y1="288.169464" x2="506.488525" y2="214.699127" id="paint_linear_399_873_0" gradientUnits="userSpaceOnUse">
            <stop stop-color="#F5AE4C"/>
            <stop offset="1.000000" stop-color="#FA8CAE"/>
        </linearGradient>
        <linearGradient x1="335.277374" y1="173.941345" x2="452.966095" y2="121.006317" id="paint_linear_399_922_0" gradientUnits="userSpaceOnUse">
            <stop stop-color="#2FD65C"/>
            <stop offset="1.000000" stop-color="#20C1C7"/>
        </linearGradient>
        <linearGradient x1="454.601562" y1="167.301300" x2="466.717834" y2="149.905304" id="paint_linear_399_928_0" gradientUnits="userSpaceOnUse">
            <stop stop-color="#2FD65C"/>
            <stop offset="1.000000" stop-color="#20C1C7"/>
        </linearGradient>
        <linearGradient x1="460.124023" y1="140.945923" x2="480.908752" y2="133.217529" id="paint_linear_399_936_0" gradientUnits="userSpaceOnUse">
            <stop stop-color="#2FD65C"/>
            <stop offset="1.000000" stop-color="#20C1C7"/>
        </linearGradient>
    </defs>
    <g clip-path="url(#clip399_826)">
        <path id="path" d="M225.22 337.94C201.47 331.12 178.62 322.27 158.83 310.06C73.32 257.34 92.11 135.22 159.21 75.88C180.25 57.27 207.51 44.29 236.14 41.99C268.18 39.41 301.72 49.13 325.84 69.94C347.75 88.85 360.62 114.8 389.12 126.01C422.18 139 458.84 133.91 493.49 137.76C561.6 145.33 606.11 203 591.06 268.81C573.63 345.09 501.09 362.06 430.77 364.72C390.01 366.26 349.24 362.31 309.1 355.61C282.26 351.13 253.12 345.94 225.22 337.94Z" fill="#FFFFFF" fill-opacity="0.120000" fill-rule="nonzero"/>
        <path id="path" d="M146.06 245.9C142.57 248.86 137.38 249.81 133.02 248.27C128.66 246.74 125.31 242.8 124.61 238.37C123.78 233.15 126.07 226.89 122.26 223.12C120.34 221.22 117.3 220.57 115.68 218.43C114.31 216.64 114.28 214.24 114.31 212.01C114.35 208.06 114.4 204.11 114.44 200.16C112.62 197.97 108.95 198.1 106.78 196.23C104.63 194.38 104.17 191.37 103.78 188.61C102.64 180.47 101.05 172.39 99.01 164.42C105.39 166.23 111.7 168.19 117.74 170.87C121.11 172.36 124.64 174.17 126.33 177.36C128.03 180.57 127.49 184.4 127.44 188C127.42 189.17 127.47 190.37 127.98 191.43C129.29 194.15 132.9 194.78 135.6 196.27C138.57 197.93 140.65 201.01 141 204.31C141.33 207.3 140.32 210.36 140.91 213.31C142.2 219.87 150.33 222.89 153.58 228.78C156.97 234.94 151.48 241.3 146.06 245.9Z" fill="#03D263" fill-opacity="0.800000" fill-rule="nonzero"/>
        <path id="path" d="M162.78 304.48C162.67 304.48 162.58 304.4 162.56 304.29C161.28 297.14 156.81 277.79 149.04 255.79C143.35 239.64 136.75 224.38 129.43 210.43C120.29 192.99 109.99 177.56 98.83 164.56C98.75 164.47 98.76 164.33 98.86 164.25C98.96 164.17 99.11 164.18 99.19 164.28C110.37 177.3 120.69 192.76 129.85 210.23C137.17 224.2 143.78 239.48 149.49 255.65C157.26 277.68 161.73 297.05 163.02 304.22C163.04 304.34 162.95 304.46 162.83 304.48C162.81 304.48 162.8 304.48 162.78 304.48Z" fill="#03D263" fill-opacity="0.800000" fill-rule="nonzero"/>
        <path id="path" d="M45.37 227.42C47.57 229.13 48.49 231.88 49.61 234.37C50.72 236.87 52.42 239.47 55.15 240.11C58.12 240.81 61.23 238.92 64.2 239.56C66.61 240.08 68.32 242.13 69.6 244.17C70.87 246.22 71.98 248.46 73.94 249.91C77 252.15 81.24 251.86 85.03 251.35C88.83 250.84 92.96 250.28 96.28 252.15C100.31 254.42 101.81 259.59 105.81 261.9C107.51 262.89 109.52 263.26 111.5 263.4C117.4 263.83 123.42 262.29 128.34 259.13C128.06 253.93 126.19 248.31 122.81 244.26C119.43 240.21 114.35 237.39 108.97 237.12C107.26 237.03 105.53 237.19 103.83 236.92C96.71 235.77 93.01 227.78 86.41 224.96C83.61 223.75 80.35 223.58 77.42 224.47C74.56 225.34 72.01 227.2 69.02 227.5C66.11 227.8 63.29 226.58 60.47 225.81C55.05 224.34 50.66 225.58 45.37 227.42Z" fill="#03D263" fill-opacity="0.800000" fill-rule="nonzero"/>
        <path id="path" d="M160.79 302.64C160.69 302.64 160.59 302.57 160.56 302.47C157.17 289.67 149.59 277.4 138.63 266.99C129.21 258.05 117.11 250.31 102.68 243.98C87.14 237.17 69.22 232.01 46.28 227.73C46.15 227.71 46.07 227.59 46.09 227.47C46.12 227.35 46.24 227.27 46.37 227.29C69.34 231.57 87.3 236.75 102.87 243.57C117.35 249.92 129.5 257.69 138.95 266.67C149.97 277.14 157.6 289.48 161.02 302.36C161.05 302.48 160.97 302.6 160.85 302.64C160.83 302.64 160.81 302.64 160.79 302.64Z" fill="#03D263" fill-opacity="0.800000" fill-rule="nonzero"/>
        <path id="path" d="M169.92 227.2C166.53 227.83 162.88 226.94 160.2 224.84C157.53 222.74 155.88 219.46 155.83 216.13C155.79 213.6 156.62 211.14 157.52 208.76C157.82 207.95 158.15 207.1 158.04 206.24C157.95 205.56 157.59 204.94 157.2 204.36C155.75 202.19 153.71 200.31 152.95 197.84C151.58 193.44 154.62 188.72 153.67 184.22C153.33 182.66 152.53 181.23 151.97 179.73C149.96 174.44 151.01 168.18 154.64 163.78C159.75 165.76 163.09 171.03 163.14 176.35C163.16 179 162.41 181.81 163.57 184.21C164.27 185.65 165.56 186.71 166.77 187.79C168.89 189.66 170.94 191.81 171.69 194.49C172.87 198.71 170.61 203.36 172.07 207.49C173.52 211.59 178.25 214.02 179.53 218.17C179.88 219.29 179.95 220.46 179.85 221.62C179.7 223.4 179.09 225.24 177.71 226.41C175.55 228.25 172.74 226.67 169.92 227.2Z" fill="#03D263" fill-opacity="0.800000" fill-rule="nonzero"/>
        <path id="path" d="M171.84 303.75C171.72 303.75 171.62 303.66 171.61 303.54C170.6 292.16 170.88 280.5 171.15 269.23C171.51 253.65 171.89 237.53 168.88 221.99C167.32 213.96 164.82 205.96 162.41 198.23C159.06 187.48 155.59 176.35 154.6 164.99C154.59 164.86 154.68 164.75 154.81 164.74C154.93 164.73 155.05 164.83 155.06 164.95C156.05 176.27 159.51 187.37 162.86 198.1C165.27 205.84 167.77 213.85 169.33 221.91C172.36 237.49 171.98 253.63 171.61 269.24C171.34 280.5 171.07 292.14 172.07 303.5C172.08 303.63 171.97 303.74 171.84 303.75Z" fill="#03D263" fill-opacity="0.800000" fill-rule="nonzero"/>
        <path id="XMLID_256_" d="M146.3 375.44C146.3 375.44 124.86 305.41 128.31 303.55C131.77 301.7 216.42 301.63 216.42 301.63C216.42 301.63 206.71 375.28 204.02 375.44C201.32 375.59 153.44 375.76 146.3 375.44Z" fill="url(#paint_linear_399_841_0)" fill-opacity="1.000000" fill-rule="nonzero"/>
        <rect id="rect" x="310.134766" y="315.295227" width="60.572231" height="49.746830" fill="#3F3D56" fill-opacity="1.000000"/>
        <path id="path" d="M390.67 375.62L291.62 375.62C289.11 375.62 287.07 373.65 287.07 371.22L287.07 369.44C287.07 367.01 289.11 365.04 291.62 365.04L390.67 365.04C393.19 365.04 395.23 367.01 395.23 369.44L395.23 371.22C395.23 373.65 393.19 375.62 390.67 375.62Z" fill="#53AD59" fill-opacity="0.120000" fill-rule="nonzero"/>
        <path id="path" d="M188.22 141.8C188.35 141.55 188.61 141.39 188.9 141.39C201.11 141.31 481.73 139.51 494.16 141.4C499.07 142.14 497.85 322.45 494.16 329.34C491.46 334.41 191.97 329.95 188.49 329.34C184.2 328.59 182.07 153.64 188.22 141.8Z" fill="#3F3D56" fill-opacity="1.000000" fill-rule="nonzero"/>
        <path id="XMLID_254_" d="M195.61 150.09C195.61 150.09 194.65 304.05 198.49 304.47C202.33 304.89 482.22 306.57 484.62 304.47C487.02 302.37 487.98 148.83 484.62 148.83C481.26 148.83 195.61 150.09 195.61 150.09Z" fill="#53AD59" fill-opacity="0.120000" fill-rule="nonzero"/>
        <ellipse id="ellipse" rx="7.326049" ry="7.151222" transform="matrix(0.928378 -0.371638 0.393956 0.919129 340.434 319.969)" fill="url(#paint_linear_399_855_0)" fill-opacity="1.000000"/>
        <g opacity="0.540000">
            <path id="path" d="M253.37 330.54L224.42 251.89L231.77 253.03C232.19 253.09 232.54 253.37 232.68 253.75L261.65 330.61C261.66 330.63 261.64 330.65 261.62 330.65L253.37 330.54Z" fill="url(#paint_linear_399_861_0)" fill-opacity="1.000000" fill-rule="nonzero"/>
        </g>
        <path id="path" d="M160.31 333.88C161.53 333.67 221.59 251.28 224.42 251.89C227.26 252.49 260.26 349.31 259.03 349.12C257.81 348.94 157.27 334.4 160.31 333.88Z" fill="url(#paint_linear_399_863_0)" fill-opacity="1.000000" fill-rule="nonzero"/>
        <path id="path" d="M215.09 320.55C214.62 320.96 214.15 321.22 213.67 321.34C213.18 321.46 212.72 321.46 212.28 321.33C211.84 321.2 211.44 320.96 211.09 320.61C210.73 320.26 210.46 319.8 210.27 319.24C210.57 315.78 210.79 312.26 210.95 308.69C211.1 305.12 211.3 301.56 211.55 298.04C211.79 294.51 212.13 291.03 212.59 287.61C213.04 284.19 213.72 280.9 214.6 277.73C214.68 277.48 214.92 277.25 215.34 277.04C215.76 276.84 216.27 276.7 216.87 276.61C217.46 276.52 218.11 276.49 218.82 276.51C219.52 276.53 220.2 276.61 220.85 276.75C221.51 276.9 222.09 277.11 222.59 277.4C223.1 277.69 223.47 278.05 223.7 278.51C224.08 279.01 224.31 279.88 224.38 281.11C224.46 282.34 224.43 283.82 224.3 285.55C224.17 287.28 223.93 289.21 223.58 291.32C223.23 293.44 222.82 295.61 222.35 297.84C221.87 300.07 221.35 302.31 220.78 304.56C220.21 306.8 219.61 308.92 218.97 310.92C218.34 312.92 217.7 314.74 217.06 316.38C216.42 318.02 215.81 319.34 215.21 320.35C215.21 320.38 215.16 320.45 215.09 320.55ZM208.87 333.69C208.21 333.2 207.68 332.63 207.28 331.99C206.88 331.35 206.64 330.7 206.59 330.04C206.52 329.37 206.67 328.73 207.02 328.1C207.37 327.47 207.95 326.92 208.77 326.45C209.89 325.79 211.01 325.54 212.14 325.7C213.27 325.85 214.14 326.52 214.74 327.68C215.32 328.69 215.59 329.78 215.57 330.95C215.54 332.12 215.02 333.13 213.99 333.98C213.23 334.64 212.38 334.91 211.43 334.79C210.48 334.68 209.63 334.31 208.87 333.69Z" fill="#FFFFFF" fill-opacity="1.000000" fill-rule="nonzero"/>
        <path id="line" d="M266.17 190.61L266.15 190.61C265.54 190.03 265.53 189.09 266.11 188.49C266.69 187.88 267.63 187.87 268.23 188.45L268.23 188.48L266.17 190.61ZM314.27 233L314.3 233C314.9 233.59 314.92 234.52 314.34 235.12C313.75 235.73 312.82 235.74 312.21 235.16L312.21 235.13L314.27 233Z" fill="#FFFFFF" fill-opacity="0.960000" fill-rule="nonzero"/>
        <path id="line" d="M268.23 188.45L314.3 233L312.21 235.16L266.15 190.61L268.23 188.45ZM266.17 190.61L266.15 190.61C265.54 190.03 265.53 189.09 266.11 188.49C266.69 187.88 267.63 187.87 268.23 188.45L268.23 188.48L266.17 190.61ZM314.27 233L314.3 233C314.9 233.59 314.92 234.52 314.34 235.12C313.75 235.73 312.82 235.74 312.21 235.16L312.21 235.13L314.27 233Z" fill="#FFFFFF" fill-opacity="0.960000" fill-rule="evenodd"/>
        <path id="line" d="" fill="#FFFFFF" fill-opacity="0.960000" fill-rule="nonzero"/>
        <path id="line" d="M266.15 233L289.18 210.73L289.18 210.73L312.21 188.45L314.3 190.61L291.27 212.88L291.26 212.88L268.23 235.16L266.15 233ZM268.23 235.13L268.23 235.16C267.63 235.74 266.69 235.73 266.11 235.12C265.53 234.52 265.54 233.59 266.15 233L266.17 233L268.23 235.13ZM312.21 188.48L312.21 188.45C312.82 187.87 313.75 187.88 314.33 188.49C314.92 189.09 314.9 190.02 314.3 190.61L314.27 190.61L312.21 188.48Z" fill="#FFFFFF" fill-opacity="0.960000" fill-rule="evenodd"/>
        <path id="line" d="M367.52 190.61L367.49 190.61C366.89 190.03 366.88 189.09 367.46 188.49C368.04 187.88 368.98 187.87 369.58 188.45L369.58 188.48L367.52 190.61ZM415.62 233L415.65 233C416.25 233.59 416.27 234.52 415.68 235.12C415.1 235.73 414.17 235.74 413.56 235.16L413.56 235.13L415.62 233Z" fill="#FFFFFF" fill-opacity="0.960000" fill-rule="nonzero"/>
        <path id="line" d="M369.58 188.45L415.65 233L413.56 235.16L367.49 190.61L369.58 188.45ZM367.52 190.61L367.49 190.61C366.89 190.03 366.88 189.09 367.46 188.49C368.04 187.88 368.98 187.87 369.58 188.45L369.58 188.48L367.52 190.61ZM415.62 233L415.65 233C416.25 233.59 416.27 234.52 415.68 235.12C415.1 235.73 414.17 235.74 413.56 235.16L413.56 235.13L415.62 233Z" fill="#FFFFFF" fill-opacity="0.960000" fill-rule="evenodd"/>
        <path id="line" d="" fill="#FFFFFF" fill-opacity="0.960000" fill-rule="nonzero"/>
        <path id="line" d="M367.5 233L390.53 210.73L390.53 210.73L413.56 188.45L415.65 190.61L392.62 212.88L392.61 212.88L369.58 235.16L367.5 233ZM369.58 235.13L369.58 235.16C368.98 235.74 368.04 235.73 367.46 235.12C366.88 234.52 366.89 233.59 367.5 233L367.52 233L369.58 235.13ZM413.56 188.48L413.56 188.45C414.17 187.87 415.1 187.88 415.68 188.49C416.27 189.09 416.25 190.02 415.65 190.61L415.62 190.61L413.56 188.48Z" fill="#FFFFFF" fill-opacity="0.960000" fill-rule="evenodd"/>
        <path id="XMLID_258_" d="M547.71 375.3L475.03 375.3C473.57 375.3 472.39 374.16 472.39 372.76L472.39 290.71C472.39 289.31 473.57 288.17 475.03 288.17L547.71 288.17C549.16 288.17 550.34 289.31 550.34 290.71L550.34 372.76C550.35 374.16 549.16 375.3 547.71 375.3Z" fill="url(#paint_linear_399_869_0)" fill-opacity="1.000000" fill-rule="nonzero"/>
        <path id="XMLID_255_" d="M493 288.16C493 288.16 491.96 216.43 493.34 215.6C494.72 214.77 505.24 213.93 506.1 215.93C506.96 217.93 506.1 288.16 506.1 288.16L493 288.16Z" fill="url(#paint_linear_399_873_0)" fill-opacity="1.000000" fill-rule="nonzero"/>
        <path id="XMLID_257_" d="M544.27 288.16L513.81 288.16L513.81 184.63C513.81 184.2 514.18 183.84 514.63 183.84L543.45 183.84C543.9 183.84 544.27 184.2 544.27 184.63L544.27 288.16Z" fill="#53AD59" fill-opacity="0.300000" fill-rule="nonzero"/>
        <path id="path" d="M603.43 376.52L103.55 376.52C103.04 376.52 102.63 376.11 102.63 375.62C102.63 375.12 103.04 374.72 103.55 374.72L603.43 374.72C603.94 374.72 604.36 375.12 604.36 375.62C604.36 376.11 603.94 376.52 603.43 376.52Z" fill="#53AD59" fill-opacity="0.121569" fill-rule="nonzero"/>
        <path id="XMLID_260_" d="M255.97 129.35L244.41 130.79C238.04 127.91 231.87 126.04 226.12 126.62C220.35 127.21 217.03 133.05 218.45 136.98C219.71 140.44 230.1 143.99 234.58 144.08C239.06 144.16 245.87 143.16 248.37 141.02L255.97 141.01L255.97 129.35Z" fill="#9F616A" fill-opacity="1.000000" fill-rule="nonzero"/>
        <path id="path" d="M248.37 141.02C248.37 141.02 250.66 137.62 245.34 134.19C245.34 134.19 250.09 134.93 251.72 137.99C253.35 141.05 253.02 141.1 253.02 141.1L248.37 141.02Z" fill="#BF878F" fill-opacity="1.000000" fill-rule="nonzero"/>
        <path id="XMLID_261_" d="M244.41 130.79C244.41 130.79 240.7 131.11 239.98 131.13C237.38 131.19 234.78 131.33 234.78 131.33C234.78 131.33 233.17 126.25 230.79 127.29C227.29 128.82 231.29 131.19 231.29 131.19C231.29 131.19 225.08 130.19 224.47 130.15C223.86 130.12 229.12 140.83 223.51 144.08C217.91 147.33 211.67 145.62 210.89 137.19C210.1 128.75 219.04 120.66 227.27 120.94C235.5 121.21 244.41 130.79 244.41 130.79Z" fill="#333333" fill-opacity="1.000000" fill-rule="nonzero"/>
        <path id="path" d="M244.16 141.1C244.16 141.1 242.4 140.61 242.4 137.64C242.4 134.68 242.4 137.35 242.4 137.35C242.4 137.35 244.19 140.5 244.16 141.1Z" fill="#F6F9FF" fill-opacity="0.189655" fill-rule="nonzero"/>
        <path id="path" d="M229.8 137.48C229.8 137.48 236.85 141.18 237.51 140.79C238.17 140.4 236.97 136.24 236.97 136.24C236.97 136.24 237.74 136.19 237.91 136.86C238.09 137.52 239.08 141.43 237.91 141.5C236.74 141.58 230.95 138.82 229.8 137.48Z" fill="#BF878F" fill-opacity="1.000000" fill-rule="nonzero"/>
        <path id="XMLID_262_" d="M270.54 207.82C270.54 207.82 268.81 210.06 268.24 211.18C267.67 212.29 267.49 217.84 267.61 217.82C267.73 217.81 269.01 217.74 269.27 217L270.68 212.31C270.68 212.31 270.78 217.34 270.61 217.7C270.43 218.06 267.44 223.83 267.7 224.01C267.97 224.2 269.1 224.86 269.98 223.43C270.87 221.99 272.96 218.26 273.22 217.67C273.47 217.07 269.12 225.52 269.3 225.58C269.47 225.65 270.59 226.21 271.03 225.66C271.47 225.11 275.37 219.11 275.49 218.63C275.62 218.15 273.07 224.38 273.2 224.37C273.33 224.37 273.84 225.01 274.54 224.16C275.24 223.31 277.58 218.75 277.69 218.51C277.8 218.27 277.77 215.36 277.77 215.36C277.77 215.36 278.35 218.77 278.22 219.22C278.08 219.66 277.01 222.25 277.5 222.34C277.88 222.41 278.54 221.71 279.06 220.79C279.57 219.88 280.23 218.5 280.18 217.2C280.13 215.89 277.65 208.6 277.65 208.6L270.54 207.82Z" fill="#9F616A" fill-opacity="1.000000" fill-rule="nonzero"/>
        <path id="path" d="M335.27 124.51C335.27 124.06 334.94 123.67 334.48 123.59L296.96 117.07C265.47 114.47 255.97 127.94 255.97 127.94L255.97 141.01L259.65 141C262.38 148.69 270.14 170.75 270.93 174.75C271.89 179.62 265.7 208.95 266.34 209.34C266.98 209.73 280.88 211.38 282.17 211.17C283.45 210.97 289.87 178.67 289.44 174.77C289.11 171.77 288.15 151.22 285.79 140.9L335.27 140.71L335.27 124.51Z" fill="#E4E4E4" fill-opacity="1.000000" fill-rule="nonzero"/>
        <path id="path" d="M285.79 140.9C285.79 140.9 284.85 136.1 280.69 132.77C280.69 132.77 302.94 137.07 309.4 137.49C315.85 137.91 335.27 136.25 335.27 136.25L335.27 140.71L285.79 140.9Z" fill="#AFAFAF" fill-opacity="1.000000" fill-rule="nonzero"/>
        <path id="path" d="M446.87 153.81C446.87 153.81 454.69 152.01 454.89 152.36C455.08 152.7 456.19 156.17 455.77 157.43C455.34 158.69 447.65 161.4 447.65 161.4L446.87 153.81Z" fill="#BF878F" fill-opacity="1.000000" fill-rule="nonzero"/>
        <path id="XMLID_264_" d="M452.96 130.82C452.96 130.82 378.87 124.94 363.48 121.82C348.09 118.7 335.27 125.49 335.27 125.49L335.27 140.71C335.27 140.71 375.09 173.49 392.94 173.92C410.8 174.35 448.14 164.72 448.44 163.14C448.74 161.56 448.44 152.21 446.95 151.64C445.47 151.06 396.07 156.52 395.18 155.52C394.6 154.86 386.23 146.75 378.89 140.71L452.96 140.71L452.96 130.82Z" fill="url(#paint_linear_399_922_0)" fill-opacity="1.000000" fill-rule="nonzero"/>
        <path id="XMLID_263_" d="M454.6 152.31C454.6 152.31 455.86 150.36 458.23 150.04C460.6 149.72 461.37 150.04 461.37 150.04C461.37 150.04 467.73 166.69 466.57 167.04C465.42 167.39 462.81 167.45 462.02 166.75C461.23 166.05 455.25 158 455.25 158C455.25 158 455.63 153.64 454.6 152.31Z" fill="url(#paint_linear_399_928_0)" fill-opacity="1.000000" fill-rule="nonzero"/>
        <path id="path" d="M452.96 134.25C452.96 134.25 460.28 135.23 460.42 135.59C460.56 135.94 460.59 140.72 460.59 140.72L452.96 140.73L452.96 134.25Z" fill="#BF878F" fill-opacity="1.000000" fill-rule="nonzero"/>
        <path id="XMLID_265_" d="M460.12 135.44C460.12 135.44 460.98 133.35 463.5 133.22C466.02 133.08 471.91 136.11 472.44 136.33C472.96 136.54 480.06 138.39 480.18 138.45C481.7 139.19 480.35 140.94 480.35 140.94L460.59 140.72L460.12 135.44Z" fill="url(#paint_linear_399_936_0)" fill-opacity="1.000000" fill-rule="nonzero"/>
        <path id="Vector 7" d="M309.91 272.96C314.73 267.29 328.73 255.95 346.11 255.95C363.49 255.95 375.56 267.29 379.43 272.96" stroke="#F6F7FB" stroke-opacity="1.000000" stroke-width="3.000000" stroke-linecap="round"/>
    </g>
</svg>
