<svg width="28.726562" height="23.648438" viewBox="0 0 28.7266 23.6484" fill="none" xmlns="http://www.w3.org/2000/svg" xmlns:xlink="http://www.w3.org/1999/xlink">
    <defs/>
    <path id="№" d="M28.72 6.77C28.72 10.14 26.64 12.27 23.39 12.27C20.12 12.27 18 10.15 18 6.77L18 5.5C18 2.12 20.12 -0.01 23.37 0C26.64 0 28.72 2.12 28.72 5.5L28.72 6.77ZM2.12 23.64L0 23.64L0 0.37L2.23 0.37L13.41 19.79L13.6 19.79L13.6 0.37L15.68 0.37L15.68 23.64L13.45 23.64L2.3 4.32L2.12 4.32L2.12 23.64ZM20.07 6.85C20.07 9.11 21.3 10.52 23.39 10.52C25.43 10.52 26.66 9.11 26.66 6.85L26.66 5.4C26.66 3.19 25.43 1.78 23.37 1.78C21.28 1.78 20.07 3.17 20.07 5.4L20.07 6.85ZM28.35 16.29L18.48 16.29L18.48 14.51L28.35 14.51L28.35 16.29Z" fill="#FFFFFF" fill-opacity="1.000000" fill-rule="evenodd"/>
</svg>
