<svg width="36.000000" height="36.000000" viewBox="0 0 36 36" fill="none" xmlns="http://www.w3.org/2000/svg" xmlns:xlink="http://www.w3.org/1999/xlink">
	<desc>
			Created with Pixso.
	</desc>
	<defs>
		<clipPath id="clip6_1775">
			<rect id="price-tag-2-line" width="36.000000" height="36.000000" fill="white" fill-opacity="0"/>
		</clipPath>
	</defs>
	<rect id="price-tag-2-line" width="36.000000" height="36.000000" fill="#FFFFFF" fill-opacity="0"/>
	<g clip-path="url(#clip6_1775)">
		<path id="矢量 67" d="M4.5 10.49L17.16 2.05C17.41 1.89 17.7 1.8 18 1.8C18.29 1.8 18.58 1.89 18.83 2.05L31.5 10.49L31.5 31.5C31.5 31.89 31.34 32.27 31.06 32.56C30.77 32.84 30.39 33 30 33L6 33C5.6 33 5.22 32.84 4.93 32.56C4.65 32.27 4.5 31.89 4.5 31.5L4.5 10.49ZM7.5 12.1L7.5 30L28.5 30L28.5 12.1L18 5.1L7.5 12.1ZM12 24L24 24L24 27L12 27L12 24ZM12 19.5L24 19.5L24 22.5L12 22.5L12 19.5ZM18 16.5C17.2 16.5 16.44 16.18 15.87 15.62C15.31 15.05 15 14.29 15 13.49C15 12.7 15.31 11.94 15.87 11.37C16.44 10.81 17.2 10.49 18 10.49C18.79 10.49 19.55 10.81 20.12 11.37C20.68 11.94 21 12.7 21 13.49C21 14.29 20.68 15.05 20.12 15.62C19.55 16.18 18.79 16.5 18 16.5Z" fill="#FFFFFF" fill-opacity="1.000000" fill-rule="evenodd"/>
		<path id="矢量 67" d="M17.16 2.05C17.41 1.89 17.7 1.8 18 1.8C18.29 1.8 18.58 1.89 18.83 2.05L31.5 10.49L31.5 31.5C31.5 31.89 31.34 32.27 31.06 32.56C30.77 32.84 30.39 33 30 33L6 33C5.6 33 5.22 32.84 4.93 32.56C4.65 32.27 4.5 31.89 4.5 31.5L4.5 10.49L17.16 2.05ZM7.5 30L28.5 30L28.5 12.1L18 5.1L7.5 12.1L7.5 30ZM24 24L24 27L12 27L12 24L24 24ZM24 19.5L24 22.5L12 22.5L12 19.5L24 19.5ZM15.87 15.62C15.31 15.05 15 14.29 15 13.49C15 12.7 15.31 11.94 15.87 11.37C16.44 10.81 17.2 10.49 18 10.49C18.79 10.49 19.55 10.81 20.12 11.37C20.68 11.94 21 12.7 21 13.49C21 14.29 20.68 15.05 20.12 15.62C19.55 16.18 18.79 16.5 18 16.5C17.2 16.5 16.44 16.18 15.87 15.62Z" stroke="#232323" stroke-opacity="1.000000" stroke-width="1.000000"/>
	</g>
</svg>
