<svg width="36.000000" height="36.000000" viewBox="0 0 36 36" fill="none" xmlns="http://www.w3.org/2000/svg" xmlns:xlink="http://www.w3.org/1999/xlink">
	<desc>
			Created with Pixso.
	</desc>
	<defs>
		<clipPath id="clip6_1769">
			<rect id="service-fill" width="36.000000" height="36.000000" fill="white" fill-opacity="0"/>
		</clipPath>
	</defs>
	<rect id="service-fill" width="36.000000" height="36.000000" fill="#FFFFFF" fill-opacity="0"/>
	<g clip-path="url(#clip6_1769)">
		<path id="矢量 146" d="M21.18 15.72C20.9 15.43 20.51 15.28 20.12 15.28C19.72 15.28 19.34 15.43 19.06 15.72L18 16.77C17.72 17.06 17.39 17.29 17.02 17.45C16.66 17.6 16.26 17.69 15.86 17.69C15.46 17.69 15.07 17.62 14.7 17.47C14.33 17.32 14 17.09 13.72 16.81C13.43 16.53 13.21 16.19 13.06 15.83C12.91 15.46 12.83 15.06 12.84 14.66C12.84 14.27 12.92 13.87 13.08 13.51C13.24 13.14 13.47 12.81 13.75 12.53L22.2 4.08C24.2 3.63 26.29 3.82 28.18 4.62C30.06 5.42 31.65 6.8 32.71 8.55C33.77 10.31 34.25 12.35 34.08 14.4C33.91 16.44 33.1 18.38 31.76 19.94L28.6 23.14L21.18 15.71L21.18 15.72ZM4.74 6.7C6.29 5.15 8.32 4.16 10.5 3.91C12.68 3.65 14.88 4.14 16.75 5.29L11.63 10.41C10.52 11.52 9.89 13.01 9.87 14.58C9.85 16.15 10.44 17.66 11.52 18.79C12.6 19.93 14.08 20.6 15.65 20.65C17.21 20.71 18.74 20.15 19.9 19.1L20.12 18.9L26.48 25.26L20.12 31.62C19.55 32.19 18.79 32.5 18 32.5C17.2 32.5 16.44 32.19 15.87 31.62L4.73 20.49C2.91 18.66 1.88 16.18 1.88 13.59C1.88 11.01 2.91 8.53 4.73 6.7L4.74 6.7Z" fill="#FFFFFF" fill-opacity="1.000000" fill-rule="evenodd"/>
	</g>
</svg>
