<svg width="276.000000" height="259.000000" viewBox="0 0 276 259" fill="none" xmlns="http://www.w3.org/2000/svg" xmlns:xlink="http://www.w3.org/1999/xlink">
	<desc>
			Created with Pixso.
	</desc>
	<defs>
		<clipPath id="clip6_1544">
			<rect id="somePic" width="276.000000" height="259.916534" transform="translate(0.000000 -0.959900)" fill="white" fill-opacity="0"/>
		</clipPath>
	</defs>
	<g clip-path="url(#clip6_1544)">
		<mask id="mask6_1547" mask-type="alpha" maskUnits="userSpaceOnUse" x="0.000000" y="-0.959900" width="276.000000" height="259.916565">
			<rect id="rect" y="-0.959900" width="276.000000" height="259.916534" fill="#000000" fill-opacity="1.000000"/>
		</mask>
		<g mask="url(#mask6_1547)">
			<path id="path" d="M147.61 35.54C156.77 28.01 169.66 25.13 179.75 31C168.39 36.49 159.14 46.27 153.64 58.62C151.54 63.39 149.64 68.94 145.3 71.15C142.6 72.52 139.41 72.25 136.61 71.15C133.81 70.04 131.32 68.16 128.86 66.3L128.13 66.2C132.5 54.49 138.46 43.07 147.61 35.54Z" fill="#F0F0F0" fill-opacity="1.000000" fill-rule="nonzero"/>
			<path id="path" d="M179.66 31.25C170.25 31.58 161.16 35.2 153.7 41.61C152.07 42.95 150.64 44.58 149.47 46.42C148.38 48.26 147.75 50.38 147.64 52.58C147.51 54.63 147.59 56.74 147.01 58.72C146.7 59.72 146.2 60.65 145.55 61.42C144.9 62.2 144.11 62.82 143.22 63.23C141.05 64.32 138.66 64.48 136.32 64.55C133.71 64.62 131 64.65 128.64 66.01C128.35 66.18 128.14 65.67 128.42 65.51C132.54 63.13 137.36 64.68 141.69 63.27C143.71 62.61 145.56 61.27 146.38 59.02C147.08 57.06 147.01 54.88 147.13 52.81C147.2 50.66 147.74 48.57 148.71 46.71C149.8 44.81 151.17 43.12 152.76 41.73C156.3 38.53 160.27 35.98 164.53 34.16C169.37 32.05 174.51 30.88 179.71 30.69C180.03 30.68 179.98 31.24 179.66 31.25Z" fill="#FFFFFF" fill-opacity="1.000000" fill-rule="nonzero"/>
			<path id="path" d="M155.99 39.39C155.2 37.85 154.92 36.04 155.21 34.3C155.5 32.55 156.34 30.97 157.57 29.85C157.82 29.63 158.15 30.05 157.9 30.28C156.75 31.32 155.97 32.79 155.7 34.41C155.43 36.04 155.7 37.72 156.45 39.15C156.61 39.46 156.15 39.7 155.99 39.39Z" fill="#FFFFFF" fill-opacity="1.000000" fill-rule="nonzero"/>
			<path id="path" d="M147.59 51.53C150.73 52.51 154.09 52.14 156.99 50.48C157.28 50.32 157.49 50.82 157.2 50.99C154.18 52.7 150.69 53.09 147.42 52.06C147.11 51.96 147.28 51.44 147.59 51.53Z" fill="#FFFFFF" fill-opacity="1.000000" fill-rule="nonzero"/>
			<path id="path" d="M169.35 32.79C169.55 33.45 169.89 34.06 170.34 34.54C170.8 35.02 171.36 35.37 171.97 35.56C172.28 35.65 172.11 36.18 171.8 36.08C171.13 35.88 170.51 35.49 170.01 34.96C169.5 34.42 169.12 33.76 168.9 33.03C168.87 32.96 168.87 32.88 168.89 32.81C168.91 32.74 168.96 32.69 169.02 32.65C169.08 32.62 169.14 32.62 169.21 32.64C169.27 32.67 169.32 32.72 169.35 32.79Z" fill="#FFFFFF" fill-opacity="1.000000" fill-rule="nonzero"/>
			<path id="path" d="M187.74 72.98C187.55 72.93 187.35 72.87 187.15 72.83C184.51 72.14 181.82 71.69 179.11 71.49C178.9 71.47 178.68 71.46 178.47 71.44C171.94 71.03 165.4 71.98 159.18 74.23C156.7 75.13 154.29 76.24 151.97 77.54C148.76 79.34 145.4 81.58 141.95 82.09C141.59 82.14 141.23 82.18 140.86 82.18L128.08 67.2C128.06 67.15 128.05 67.11 128.03 67.06L127.5 66.48C127.61 66.41 127.73 66.33 127.85 66.25C127.92 66.21 127.99 66.17 128.05 66.12C128.1 66.09 128.14 66.07 128.18 66.04C128.22 66.01 128.31 65.96 128.34 65.93C129.02 65.5 129.7 65.08 130.39 64.66C135.62 61.46 141.14 58.71 146.86 56.99C147.03 56.94 147.21 56.88 147.38 56.84C149.96 56.08 152.6 55.55 155.25 55.27C156.71 55.12 158.17 55.05 159.63 55.07C163.41 55.11 167.15 55.82 170.73 57.16C177.86 59.84 184.15 65.02 187.49 72.41C187.58 72.6 187.66 72.79 187.74 72.98Z" fill="#F0F0F0" fill-opacity="1.000000" fill-rule="nonzero"/>
			<path id="path" d="M187.54 73.13C179.85 67.08 170.63 63.88 161.21 63.99C159.18 63.97 157.16 64.31 155.23 65C153.37 65.73 151.71 67.01 150.44 68.69C149.23 70.24 148.14 71.98 146.62 73.17C145.82 73.76 144.93 74.17 143.99 74.35C143.05 74.53 142.08 74.49 141.15 74.23C138.83 73.65 136.83 72.17 134.93 70.65C132.81 68.96 130.63 67.17 128 66.68C127.69 66.62 127.79 66.07 128.11 66.13C132.68 66.99 135.69 71.46 139.91 73.23C141.88 74.06 144.08 74.23 145.95 72.98C147.57 71.89 148.69 70.1 149.91 68.53C151.13 66.86 152.69 65.55 154.47 64.72C156.37 63.93 158.37 63.5 160.39 63.46C164.95 63.28 169.5 63.9 173.89 65.3C178.9 66.86 183.63 69.37 187.88 72.71C188.14 72.92 187.8 73.33 187.54 73.13Z" fill="#FFFFFF" fill-opacity="1.000000" fill-rule="nonzero"/>
			<path id="path" d="M164.24 63.76C164.44 61.99 165.19 60.37 166.37 59.17C167.55 57.96 169.07 57.27 170.66 57.2C170.98 57.19 171.02 57.75 170.69 57.76C169.21 57.82 167.79 58.47 166.7 59.59C165.61 60.71 164.91 62.23 164.73 63.87C164.7 64.23 164.2 64.11 164.24 63.76Z" fill="#FFFFFF" fill-opacity="1.000000" fill-rule="nonzero"/>
			<path id="path" d="M150.96 67.82C152.94 70.71 155.83 72.65 159.04 73.28C159.36 73.34 159.25 73.89 158.94 73.83C155.59 73.17 152.6 71.13 150.54 68.13C150.35 67.84 150.77 67.53 150.96 67.82Z" fill="#FFFFFF" fill-opacity="1.000000" fill-rule="nonzero"/>
			<path id="path" d="M178.48 67.44C178.27 68.1 178.22 68.81 178.32 69.51C178.43 70.2 178.68 70.85 179.07 71.41C179.27 71.69 178.85 71.99 178.65 71.71C178.22 71.1 177.94 70.38 177.83 69.61C177.71 68.85 177.77 68.06 177.98 67.32C178 67.25 178.04 67.19 178.09 67.15C178.15 67.11 178.22 67.1 178.28 67.11C178.35 67.12 178.4 67.17 178.44 67.23C178.48 67.29 178.49 67.37 178.48 67.44Z" fill="#FFFFFF" fill-opacity="1.000000" fill-rule="nonzero"/>
			<path id="path" d="M145.2 46.75L144.21 46.75L144.21 16.53C144.21 14.23 143.8 11.95 143.01 9.83C142.22 7.71 141.06 5.78 139.6 4.16C138.14 2.53 136.41 1.25 134.51 0.37C132.6 -0.51 130.56 -0.96 128.5 -0.96L70.99 -0.96C68.93 -0.96 66.88 -0.51 64.98 0.37C63.07 1.25 61.34 2.53 59.88 4.16C58.42 5.78 57.27 7.71 56.48 9.83C55.69 11.95 55.28 14.23 55.28 16.53L55.28 182.32C55.28 186.96 56.94 191.41 59.88 194.69C62.83 197.97 66.82 199.81 70.99 199.81L128.5 199.81C132.66 199.81 136.66 197.97 139.6 194.69C142.55 191.41 144.21 186.96 144.21 182.32L144.21 68.26L145.2 68.26L145.2 46.75Z" fill="#3F3D56" fill-opacity="1.000000" fill-rule="nonzero"/>
			<path id="path" d="M129.13 3.59L121.62 3.59C121.97 4.53 122.1 5.55 122.01 6.56C121.91 7.57 121.6 8.55 121.09 9.39C120.58 10.24 119.89 10.93 119.08 11.41C118.28 11.88 117.38 12.13 116.46 12.14L83.52 12.14C82.6 12.13 81.71 11.88 80.9 11.41C80.09 10.93 79.4 10.24 78.89 9.39C78.38 8.55 78.07 7.57 77.97 6.56C77.88 5.55 78.01 4.53 78.36 3.59L71.35 3.59C68.24 3.59 65.25 4.96 63.05 7.41C60.85 9.86 59.62 13.18 59.62 16.65L59.62 182.2C59.62 183.91 59.92 185.61 60.51 187.2C61.1 188.78 61.96 190.22 63.05 191.43C64.14 192.65 65.43 193.61 66.86 194.26C68.28 194.92 69.81 195.26 71.35 195.26L129.13 195.26C130.67 195.26 132.2 194.92 133.62 194.26C135.04 193.61 136.34 192.65 137.42 191.43C138.51 190.22 139.38 188.78 139.97 187.2C140.56 185.61 140.86 183.91 140.86 182.2L140.86 16.65C140.86 13.18 139.63 9.86 137.42 7.41C135.23 4.96 132.24 3.59 129.13 3.59Z" fill="#FFFFFF" fill-opacity="1.000000" fill-rule="nonzero"/>
			<path id="path" d="M101.35 142.08C97.09 142.08 92.88 141.15 88.95 139.34C85.02 137.53 81.44 134.87 78.43 131.52C75.43 128.17 73.04 124.2 71.41 119.82C69.79 115.44 68.95 110.75 68.96 106.01C68.95 99.36 70.6 92.83 73.72 87.16C76.84 81.49 81.31 76.89 86.64 73.87C90.5 71.69 94.71 70.38 99.03 70.04C103.35 69.69 107.69 70.31 111.79 71.86C119.06 74.62 125.21 80.16 129.14 87.49C133.08 94.82 134.56 103.47 133.3 111.9C132.05 120.33 128.15 127.99 122.3 133.52C116.45 139.04 109.02 142.08 101.35 142.08ZM101.35 71.36C96.43 71.34 91.59 72.64 87.22 75.13C83.39 77.3 80.01 80.33 77.29 84.02C74.57 87.71 72.56 91.99 71.39 96.58C70.23 101.18 69.93 106 70.51 110.73C71.09 115.46 72.55 120.01 74.79 124.08C77.02 128.16 79.99 131.67 83.51 134.41C87.03 137.15 91.01 139.05 95.22 139.99C99.42 140.92 103.76 140.89 107.95 139.87C112.14 138.86 116.1 136.89 119.58 134.09C121.26 132.74 122.81 131.21 124.22 129.51C128.32 124.56 131.05 118.39 132.05 111.75C133.05 105.1 132.3 98.28 129.87 92.11C127.44 85.93 123.45 80.68 118.39 77C113.32 73.32 107.4 71.36 101.35 71.36Z" fill="#F0F0F0" fill-opacity="1.000000" fill-rule="nonzero"/>
			<path id="path" d="M31.16 74C32.05 74.13 32.9 74.47 33.66 75C34.42 75.53 35.06 76.24 35.55 77.08C36.03 77.92 36.35 78.86 36.47 79.85C36.59 80.84 36.52 81.85 36.25 82.8L47.01 92.78L43.16 101.54L28.14 87.21C26.73 86.61 25.57 85.45 24.88 83.96C24.18 82.46 24.01 80.74 24.38 79.11C24.75 77.49 25.65 76.07 26.9 75.12C28.15 74.18 29.66 73.78 31.16 74Z" fill="#FFB6B6" fill-opacity="1.000000" fill-rule="nonzero"/>
			<path id="path" d="M131.67 115.63C131.46 113.05 130.57 108.4 129.81 106.68C127.48 99.9 112.44 94.33 110.42 93.61L109.91 87.27L89.01 84.76L86.36 92.87L78.87 96C78.36 96.21 77.9 96.55 77.52 96.98C77.14 97.41 76.85 97.93 76.67 98.51L69.95 100.67L63.32 102.81L40.26 84.72L39.18 85.51L31.9 90.8L30.78 91.61L60.61 121.58L71.69 118.68L80.02 116.5L80.74 119.72L78.89 131.01C84.23 136.96 91.29 140.59 98.82 141.26C106.34 141.93 113.83 139.59 119.95 134.67L124.68 129.99C127.98 126.02 130.42 121.25 131.8 116.07L131.67 115.63Z" fill="#E4E4E4" fill-opacity="1.000000" fill-rule="nonzero"/>
			<path id="path" d="M106.03 79.58C113.92 76.67 118.19 67.19 115.58 58.41C112.97 49.63 104.46 44.86 96.57 47.77C88.68 50.68 84.4 60.16 87.02 68.94C89.63 77.72 98.14 82.49 106.03 79.58Z" fill="#FFB6B6" fill-opacity="1.000000" fill-rule="nonzero"/>
			<path id="path" d="M89.41 44.58C90.88 42.25 93.07 40.62 95.56 40.02C98.03 39.45 100.59 39.98 102.71 41.48C105.02 40.44 107.51 39.75 109.96 40.1C112.4 40.45 114.8 41.97 115.93 44.48C116.17 45.13 116.46 45.75 116.79 46.35C117.79 47.83 119.64 48.02 121.28 48.09C120.45 48.63 119.63 49.16 118.8 49.7C119.62 50.13 120.45 50.56 121.27 50.98C120.15 51.46 119.03 51.94 117.9 52.42C120.52 54.97 121.15 59.52 120.16 63.34C119.22 66.95 117.08 69.99 114.68 72.59C114.21 70.65 114.73 68.54 115.07 66.53C115.43 64.41 115.49 61.92 114.15 60.42C113.25 59.41 111.93 59.11 110.68 58.86C104.4 57.62 98.05 56.78 91.68 56.35C90.82 56.22 89.95 56.32 89.14 56.64C87.59 57.4 86.97 59.51 86.52 61.38C86.3 58.1 86.48 54.8 87.03 51.57C87.46 49.1 88.13 46.63 89.41 44.58Z" fill="#2F2E41" fill-opacity="1.000000" fill-rule="nonzero"/>
			<path id="path" d="M108.97 159.07L91.19 159.07C90.57 159.07 89.98 158.8 89.54 158.31C89.1 157.82 88.86 157.16 88.86 156.48C88.86 155.79 89.1 155.13 89.54 154.64C89.98 154.16 90.57 153.88 91.19 153.88L108.97 153.88C109.59 153.88 110.18 154.16 110.62 154.64C111.05 155.13 111.3 155.79 111.3 156.48C111.3 157.16 111.05 157.82 110.62 158.31C110.18 158.8 109.59 159.07 108.97 159.07Z" fill="#03D263" fill-opacity="1.000000" fill-rule="nonzero"/>
			<path id="path" d="M50.61 20.31L1.7 20.31C1.25 20.31 0.81 20.11 0.49 19.75C0.18 19.4 0 18.92 0 18.42C0 17.91 0.18 17.43 0.49 17.08C0.81 16.72 1.25 16.52 1.7 16.52L50.61 16.52C51.06 16.52 51.5 16.72 51.82 17.08C52.14 17.43 52.31 17.91 52.31 18.42C52.31 18.92 52.14 19.4 51.82 19.75C51.5 20.11 51.06 20.31 50.61 20.31Z" fill="#03D263" fill-opacity="1.000000" fill-rule="nonzero"/>
			<path id="path" d="M78.86 32.41L1.7 32.41C1.25 32.41 0.81 32.21 0.49 31.85C0.17 31.5 0 31.02 0 30.51C0 30.01 0.17 29.53 0.49 29.17C0.81 28.82 1.25 28.62 1.7 28.62L78.86 28.62C79.31 28.62 79.74 28.82 80.06 29.17C80.38 29.53 80.56 30.01 80.56 30.51C80.56 31.02 80.38 31.5 80.06 31.85C79.74 32.21 79.31 32.41 78.86 32.41Z" fill="#03D263" fill-opacity="1.000000" fill-rule="nonzero"/>
			<path id="path" d="M64.03 43.81L1.7 43.81C1.25 43.81 0.81 43.61 0.49 43.25C0.17 42.9 0 42.42 0 41.91C0 41.41 0.17 40.93 0.49 40.57C0.81 40.22 1.25 40.02 1.7 40.02L64.03 40.02C64.48 40.02 64.91 40.22 65.23 40.57C65.55 40.93 65.73 41.41 65.73 41.91C65.73 42.42 65.55 42.9 65.23 43.25C64.91 43.61 64.48 43.81 64.03 43.81Z" fill="#CACACA" fill-opacity="1.000000" fill-rule="nonzero"/>
			<path id="path" d="M36.85 55.16L1.7 55.16C1.25 55.16 0.81 54.96 0.49 54.61C0.17 54.25 0 53.77 0 53.27C0 52.77 0.17 52.29 0.49 51.93C0.81 51.57 1.25 51.38 1.7 51.38L36.85 51.38C37.3 51.38 37.73 51.57 38.05 51.93C38.37 52.29 38.55 52.77 38.55 53.27C38.55 53.77 38.37 54.25 38.05 54.61C37.73 54.96 37.3 55.16 36.85 55.16Z" fill="#CACACA" fill-opacity="1.000000" fill-rule="nonzero"/>
			<path id="path" d="M56.26 66.52L1.7 66.52C1.25 66.52 0.81 66.32 0.5 65.96C0.18 65.61 0 65.13 0 64.62C0 64.12 0.18 63.64 0.5 63.29C0.81 62.93 1.25 62.73 1.7 62.73L56.26 62.73C56.71 62.73 57.14 62.93 57.46 63.29C57.78 63.64 57.96 64.12 57.96 64.62C57.96 65.13 57.78 65.61 57.46 65.96C57.14 66.32 56.71 66.52 56.26 66.52Z" fill="#CACACA" fill-opacity="1.000000" fill-rule="nonzero"/>
			<path id="path" d="M210.04 251.84L205.66 251.84L203.57 233.01L210.05 233.01L210.04 251.84Z" fill="#9F616A" fill-opacity="1.000000" fill-rule="nonzero"/>
			<path id="path" d="M211.77 258.6L195.03 258.6L195.03 258.36C195.03 256.44 195.72 254.59 196.94 253.23C198.16 251.87 199.82 251.11 201.55 251.11L204.6 248.52L210.31 251.11L211.77 251.11L211.77 258.6Z" fill="#2F2E41" fill-opacity="1.000000" fill-rule="nonzero"/>
			<path id="path" d="M207.49 163.35L205.56 137.1L204.04 127.25L212.54 125.16L215.36 138.64L212.91 164.08C213.4 164.75 213.7 165.58 213.78 166.45C213.85 167.32 213.68 168.19 213.3 168.96C212.93 169.72 212.35 170.35 211.65 170.74C210.95 171.14 210.16 171.3 209.39 171.19C208.61 171.09 207.87 170.73 207.28 170.16C206.69 169.58 206.26 168.83 206.06 167.98C205.86 167.14 205.88 166.25 206.14 165.42C206.39 164.6 206.86 163.87 207.49 163.35Z" fill="#9F616A" fill-opacity="1.000000" fill-rule="nonzero"/>
			<path id="path" d="M186.76 251.84L182.37 251.84L180.29 233.01L186.76 233.01L186.76 251.84Z" fill="#9F616A" fill-opacity="1.000000" fill-rule="nonzero"/>
			<path id="path" d="M179.74 169.3L177.8 173.04C177.8 173.04 175.66 173.69 176.36 181.44C177.06 189.2 177.09 235.12 180.46 240.77L181.08 245.62L187.46 246.3L187.62 242L195.22 182.18C195.22 182.18 199.7 240.9 203.41 242.34L204.75 247.23L210.6 247.23L210.25 241.47L210.63 168.69L179.74 169.3Z" fill="#2F2E41" fill-opacity="1.000000" fill-rule="nonzero"/>
			<path id="path" d="M177.6 172.76L177.47 172.72C181.48 156.01 180.32 134.38 177.49 111.15L187.73 100.61L196.62 100.61L205.44 106.94C211.14 110.12 212.43 116.83 212.44 116.9L208.96 130.52L211.59 169.77C210.74 172.17 208.45 171.91 205.8 171.52C203.17 171.12 193.45 174.74 190.47 174.74C184.65 174.74 178.02 172.88 177.6 172.76Z" fill="#E4E4E4" fill-opacity="1.000000" fill-rule="nonzero"/>
			<path id="path" d="M203.59 112.23L207.41 110.38L212.44 117.25L216.52 139.27L202.55 136.91L203.59 112.23Z" fill="#E4E4E4" fill-opacity="1.000000" fill-rule="nonzero"/>
			<path id="path" d="M144.84 152.83L162.3 135.06L168.37 127.7L175.06 133.91L167.2 144.64L147.63 158.05C147.46 158.9 147.05 159.67 146.48 160.26C145.9 160.86 145.18 161.25 144.41 161.38C143.63 161.52 142.84 161.39 142.13 161.02C141.42 160.65 140.82 160.05 140.42 159.3C140.02 158.55 139.83 157.68 139.87 156.81C139.92 155.94 140.19 155.1 140.67 154.41C141.14 153.71 141.79 153.19 142.53 152.91C143.28 152.63 144.08 152.6 144.84 152.83Z" fill="#9F616A" fill-opacity="1.000000" fill-rule="nonzero"/>
			<path id="path" d="M161.92 135.26L166.75 128.26C166.79 128.16 170.81 118.18 174.29 113.84C177.85 109.39 180.66 111.67 180.69 111.69L180.95 128.18L167.56 146L161.92 135.26Z" fill="#E4E4E4" fill-opacity="1.000000" fill-rule="nonzero"/>
			<path id="path" d="M199.34 90.77C200.06 85.83 197.04 81.16 192.6 80.36C188.16 79.56 183.97 82.92 183.25 87.87C182.53 92.81 185.54 97.48 189.99 98.28C194.43 99.08 198.62 95.72 199.34 90.77Z" fill="#9F616A" fill-opacity="1.000000" fill-rule="nonzero"/>
			<path id="path" d="M183.84 87.97C183.84 87.97 183.78 84.78 183.41 83.37C183.05 81.96 182.33 80.75 182.69 80.75C183.05 80.75 183.23 79.74 183.23 79.74C183.23 79.74 183.6 79.54 183.78 79.74C183.96 79.94 184.14 78.33 184.14 78.33C184.14 78.33 184.32 77.72 184.5 78.13C184.68 78.53 184.68 78.33 184.86 77.72C185.04 77.12 185.95 76.71 185.95 76.71C185.95 76.71 189.39 76.92 189.94 76.11C190.48 75.3 196.64 75.91 197.91 76.92C199.17 77.92 204.79 81.55 203.88 84.58C202.98 87.61 200.37 94.57 199.72 95.27C198.68 96.37 197.97 96.77 193.08 97.85C192.12 98.07 187.24 94.59 187.24 93.98C187.24 93.38 187.83 91.46 186.88 91.2C185.45 90.8 185.29 92.81 184.93 92.21C184.57 91.6 183.84 87.97 183.84 87.97Z" fill="#2F2E41" fill-opacity="1.000000" fill-rule="nonzero"/>
			<path id="path" d="M188.48 258.6L171.74 258.6L171.74 258.36C171.74 256.44 172.43 254.59 173.65 253.23C174.87 251.87 176.53 251.11 178.26 251.11L181.31 248.52L187.02 251.11L188.48 251.11L188.48 258.6Z" fill="#2F2E41" fill-opacity="1.000000" fill-rule="nonzero"/>
			<path id="path" d="M275.49 258.95L1.4 258.95C1.27 258.95 1.14 258.89 1.05 258.79C0.95 258.68 0.9 258.54 0.9 258.39C0.9 258.24 0.95 258.1 1.05 257.99C1.14 257.89 1.27 257.83 1.4 257.83L275.49 257.83C275.63 257.83 275.75 257.89 275.85 257.99C275.94 258.1 276 258.24 276 258.39C276 258.54 275.94 258.68 275.85 258.79C275.75 258.89 275.63 258.95 275.49 258.95Z" fill="#CACACA" fill-opacity="1.000000" fill-rule="nonzero"/>
		</g>
	</g>
</svg>
