<svg width="11.000000" height="14.000000" viewBox="0 0 11 14" fill="none" xmlns="http://www.w3.org/2000/svg" xmlns:xlink="http://www.w3.org/1999/xlink">
    <defs/>
    <path id="path" d="M10.1 1.76L7.56 1.76C7.39 0.76 6.53 0 5.47 0C4.41 0 3.52 0.76 3.38 1.76L0.88 1.76C0.39 1.76 0 2.15 0 2.62L0 3.49C0 3.93 0.32 4.28 0.75 4.33L0.75 12.86C0.75 13.49 1.27 14 1.92 14L9.07 14C9.72 14 10.24 13.49 10.24 12.86L10.24 4.35C10.67 4.28 11 3.93 11 3.51L11 2.63C10.98 2.15 10.58 1.76 10.1 1.76ZM5.47 0.64C6.17 0.64 6.75 1.12 6.87 1.76L4.05 1.76C4.19 1.13 4.77 0.64 5.47 0.64ZM9.55 12.88C9.55 13.14 9.34 13.37 9.05 13.37L1.9 13.37C1.63 13.37 1.4 13.16 1.4 12.88L1.4 4.37L9.54 4.37L9.54 12.88L9.55 12.88ZM10.31 3.49C10.31 3.61 10.22 3.7 10.09 3.7L0.87 3.7C0.75 3.7 0.66 3.61 0.66 3.49L0.66 2.62C0.66 2.49 0.75 2.41 0.87 2.41L10.08 2.41C10.2 2.41 10.29 2.49 10.29 2.62L10.29 3.49L10.31 3.49ZM2.89 11.69L2.89 6.17C2.89 5.99 3.04 5.85 3.22 5.85C3.4 5.85 3.54 5.99 3.54 6.17L3.54 11.69C3.54 11.86 3.4 12 3.22 12C3.04 12.02 2.89 11.86 2.89 11.69ZM5.18 11.69L5.18 6.17C5.18 5.99 5.32 5.85 5.5 5.85C5.68 5.85 5.83 5.99 5.83 6.17L5.83 11.69C5.83 11.86 5.68 12 5.5 12C5.32 12.02 5.18 11.86 5.18 11.69ZM7.47 11.69L7.47 6.17C7.47 5.99 7.61 5.85 7.79 5.85C7.97 5.85 8.11 5.99 8.11 6.17L8.11 11.69C8.11 11.86 7.97 12 7.79 12C7.63 12.02 7.47 11.86 7.47 11.69Z" fill="#DC283A" fill-opacity="1.000000" fill-rule="nonzero"/>
</svg>
